/* XPM */
static char *result[] = {
/* columns rows colors chars-per-pixel */
"36 36 198 2 ",
"   c #391502",
".  c #361402",
"X  c #3A1F11",
"o  c #2E261E",
"O  c #32291F",
"+  c #2F2622",
"@  c #3C3833",
"#  c #4A1B03",
"$  c #521F05",
"%  c #5B2408",
"&  c #482918",
"*  c #4C240F",
"=  c #6E2C0B",
"-  c #642707",
";  c #7A2F08",
":  c #762D06",
">  c #77330F",
",  c #7D320C",
"<  c #753211",
"1  c #783410",
"2  c #463126",
"3  c #3D413E",
"4  c #5B4438",
"5  c #4B4138",
"6  c #764A34",
"7  c #674234",
"8  c #3A4C4A",
"9  c #3B4745",
"0  c #37534F",
"q  c #375854",
"w  c #2A6F6E",
"e  c #376767",
"r  c #3A7676",
"t  c #4A4741",
"y  c #584C46",
"u  c #5C534F",
"i  c #475757",
"p  c #595A5A",
"a  c #735847",
"s  c #745C52",
"d  c #776358",
"f  c #495F64",
"g  c #476567",
"h  c #557A7A",
"j  c #5D7F7F",
"k  c #447877",
"l  c #636B6C",
"z  c #6A7C7C",
"x  c #6A7977",
"c  c #7E7B79",
"v  c #83340D",
"b  c #8A390F",
"n  c #823510",
"m  c #8A3A12",
"M  c #823A17",
"N  c #913E13",
"B  c #903E1F",
"V  c #8D411C",
"C  c #9E461B",
"Z  c #96441A",
"A  c #A24A1C",
"S  c #954623",
"D  c #964824",
"F  c #9C4E2B",
"G  c #974B28",
"H  c #9F512F",
"J  c #9F5030",
"K  c #8C4D2F",
"L  c #A34D24",
"P  c #A64F26",
"I  c #AC5124",
"U  c #A2522E",
"Y  c #AB542C",
"T  c #AD582F",
"R  c #B25629",
"E  c #B5592C",
"W  c #BB5C2C",
"Q  c #B55525",
"!  c #A04F30",
"~  c #A45431",
"^  c #AB5936",
"/  c #A25A3B",
"(  c #A95A35",
")  c #B25A32",
"_  c #B85D35",
"`  c #B25F3F",
"'  c #B4613E",
"]  c #BA623C",
"[  c #B26036",
"{  c #CD6B39",
"}  c #C46739",
"|  c #D16C39",
" . c #9E5F40",
".. c #895A45",
"X. c #8D6657",
"o. c #936957",
"O. c #A06045",
"+. c #B66442",
"@. c #BB6745",
"#. c #BB6846",
"$. c #B76C49",
"%. c #A06E58",
"&. c #A6705B",
"*. c #AA725B",
"=. c #B7714B",
"-. c #847268",
";. c #C46A45",
":. c #CC6C44",
">. c #CA6D48",
",. c #D16E45",
"<. c #CE7146",
"1. c #CD7249",
"2. c #CA764C",
"3. c #D37345",
"4. c #DA7545",
"5. c #DD7946",
"6. c #D47448",
"7. c #DA7A47",
"8. c #CB7C5A",
"9. c #E37947",
"0. c #E27745",
"q. c #668177",
"w. c #CB815D",
"e. c #C78B6E",
"r. c #327F80",
"t. c #5B7C81",
"y. c #3E8A8B",
"u. c #368F8F",
"i. c #38908F",
"p. c #2F9594",
"a. c #329291",
"s. c #37989C",
"d. c #3FA2A3",
"f. c #448C8D",
"g. c #4E898A",
"h. c #5F848A",
"j. c #4E9499",
"k. c #449898",
"l. c #569397",
"z. c #67888B",
"x. c #658A92",
"c. c #688D96",
"v. c #6D959D",
"b. c #679298",
"n. c #729698",
"m. c #768585",
"M. c #5D9EA4",
"N. c #6B9AA2",
"B. c #689AA2",
"V. c #5BA4A9",
"C. c #4BB2B4",
"Z. c #4CBABC",
"A. c #5CBBBF",
"S. c #58B6BA",
"D. c #49A1A3",
"F. c #66A5AC",
"G. c #69A3AB",
"H. c #66A9AE",
"J. c #69A0A6",
"K. c #65AFB4",
"L. c #63B1B6",
"P. c #63B5BB",
"I. c #60BBBF",
"U. c #5FBFC3",
"Y. c #60BCC1",
"T. c #4FCDCF",
"R. c #46C3C4",
"E. c #53C3C7",
"W. c #52C4C8",
"Q. c #5CC5CA",
"!. c #52CBCC",
"~. c #5BCCCE",
"^. c #5DC2C6",
"/. c #4FCFD1",
"(. c #5ACDD1",
"). c #50CED0",
"_. c #4CD7D8",
"`. c #4ED4D6",
"'. c #58D5D7",
"]. c #818283",
"[. c #88999A",
"{. c #8CA4A4",
"}. c #ADADAD",
"|. c #A5A8A8",
" X c #A6AFB0",
".X c #B5B9B9",
"XX c #BBC1BF",
"oX c #BEC2C2",
"OX c #C7C9CA",
"+X c #CED2D1",
"@X c #DADCDC",
"#X c #D3D4D4",
"$X c #E2E3E3",
"%X c #EEEEEE",
"&X c #F4F5F5",
"*X c #F9F8F7",
"=X c #FEFFFE",
"-X c #F6F8F6",
/* pixels */
"=X=X=X=X=X=X=X=X=X=X=X=X=X=X=X=X=X=X=X=X=X=X=X=X=X=X=X=X=X=X=X=X=X=X=X=X",
"=X=X=X=X=X=X=X=X=X=X=X=X=X=X=X%X@X#X#X#X#X$X=X=X=X=X=X=X=X=X=X=X=X=X=X=X",
"=X=X=X=X=X=X=X=X=X=X=X=X%X+X[.n.f.y.y.y.f.l.[. X$X&X=X=X=X=X=X=X=X=X=X=X",
"=X=X=X=X=X=X=X=X=X=X@X Xz.f.C.Z.~.L.G.F.^.!.C.D.g.[..X=X=X=X=X=X=X=X=X=X",
"=X=X=X=X=X=X=X=X+Xk y.E.(.L.v.v.l.r f g y.v.v.N.^.(.C.w {.%X=X=X=X=X=X=X",
"=X=X=X=X=X=X&X.Xf._.L.N.b.j.q + & % - % $ + + k.l.v.N.'.C.n.$X=X=X=X=X=X",
"=X=X=X=X=X@X{.k.K.v.V.g 2 * < n Z E F ~ F ; V $ & y k.G.v.M.l.XX*X=X=X=X",
"=X=X=X=X*Xm.d.~.G.h.2 < m ^ ` _ Q 6.#.#.` C 0.) S n * f b.K.'.e +X=X=X=X",
"=X=X=X=X+Xr.S.B.g.& = Q 4.@.;._ R 4.#.@.+.C <.:.:.{ : - i M.N.Z.q.*X=X=X",
"=X=X=X$X8 ~.N.z.@ - F W 6.>.:.) R 6.,.;.` C <.;.,.;.Z A * i N.F.s.|.=X=X",
"=X=X=Xx R.K.U.g $ ( ! W 3.<.,.^ R 6.3.;.` C <.;.:.;.N 6.< 2 j.^.I.e OX=X",
"=X=X&Xz R.v.t.O B @.! W ,.;.;.^ Q 6.,.;.` C <.@.;.:.m 3.^ % 8 v.S.r oX=X",
"=X=X.Xu.^.P.q - Y @.! W ,.#.;.( R 5.:.;.' C <.@.;.:.N 3.+.M X V.P.R.z.*X",
"=X=X}.p.I.L.8 > 7.@.U W 3.#.@.^ R 9.#.:.] C 3.@.;.{ Z 3.@.J   V.K.T.h *X",
"=X=X}.a.G.z.6 Z W T L I R Y Y P A W Y R I A R Y I R C Q Y P M x b.E.h *X",
"=X=X}.p.'.q.} 7.1.e.6.<.3.8.8.3.6.3.w.w.3.<.3.8.w.3.,.3.e.2.3.6 ^._.h *X",
"=X=X}.a.F.z K G D D D D D D D D D S S D S D D D D D S S D S V d n.W.h *X",
"=X=X}.a.L.G.9 = E G B A Y F F S C R F F L b P ! F G v Y Y B   b.J.W.h *X",
"=X=X}.a.~.Q.0 > 9.@.F W 4.:.@.^ R 0.;.#.;.C 1.#.#.+.N 6.>.~ . S.^.`.h *X",
"=X=X}.a.G.n.3 > ;.-.6 W ,.,.;.^ R 4.:.;._ A 1.@.;.+.N 0.:.T   x.v.W.h *X",
"=X=X}.a.U.P.8 > =.c 7 E 1.;.:.^ R 6.:.,.' A 3.;.;.@.N 0.;.~   F.L./.h *X",
"=X=X}.a.^.P.8 > 7.y H _ 1.#.:.^ Q 6.;.,.` A :.;.;.@.N 0.,.Y . V.L.T.h -X",
"=X=X}.a.F.v.5 1 5.y F W 3.@.:.) R 7.;.,.' A ,.;.:.@.N 3.:.! . z.v.W.h *X",
"=X=X}.a.(.Q.q 1 6.u K W <.@.;._ R 7.;.:.' A ,.:.:.@.N 3.:.Y   S.Q.`.h *X",
"=X=X}.a.L.G.9 > =.m.7 E 3.@.@._ R 7.;.:._ C 3.,.,.;.m 3.:.Y . b.G.Q.h *X",
"=X=X}.a.G.v.3 > 5...F W <.@.#._ R 4.#.#.` A 3.:.;.;.N 3.;.U . x.v.E.h *X",
"=X=X}.a.'.'.0 > 9.$.J W <.@.@._ R 6.@.#.` C 5.#.;.;.N 3.@.H   Z.(._.h *X",
"=X=X}.a.H.v.4 , W ~ V A ( U Y G C ) U U F N _ T Y Y b ) U S % z.v.E.h -X",
"=X=X}.a.Y.x [ | { 2.{ { { <.{ { { { <.<.{ { { { <.{ { { 2.<.{ a F.T.h -X",
"=X=X}.a.A.q.( ^ ~ O.~ U U / / U ~ U / / U ~ U / J U U H J J ~ s H.T.h -X",
"=X=X}.a.F.v.5 - v v ; , , , , , ; v , , , : , , 1 n : , > ; # x.v.W.h -X",
"=X=X}.p.'.'.q 1 9.3.U W 1.;.;.( R 6.:.<.' C 1.>.<.;.Z 4.#.~   Z.~._.h -X",
"=X=X}.a.G.N.@ < 5.>.Y W <.;.#.^ E 7.>.:.' C <.;.;.#.N 3.@.J   x.v.W.h -X",
"=X=X}.u.M.b.3 < 7.@.P E ,.;.+.~ R | ] ;.] Z :.' +.' m { +.G . h.c.Z.j -X",
"=X=X&X[.l l p s &.&.X.X.*.&.&.o.X.*.&.&.%.s *.*.*.%.d *.&.X.y l l z OX=X",
"=X=X=X=X=X=X=X=X=X=X=X=X=X=X=X=X*X=X=X=X=X=X=X=X=X=X=X=X=X=X=X=X=X=X=X=X"
};
