/* XPM */
static char *result[] = {
/* columns rows colors chars-per-pixel */
"36 36 181 2 ",
"   c #47151E",
".  c #49161F",
"X  c #4D191F",
"o  c #7E2F1C",
"O  c #4D1D24",
"+  c #4F1F28",
"@  c #4F2128",
"#  c #542124",
"$  c #5A2423",
"%  c #5C2B27",
"&  c #52232B",
"*  c #56292C",
"=  c #5C2C2A",
"-  c #582629",
";  c #562930",
":  c #632D24",
">  c #6D2E23",
",  c #632E2A",
"<  c #6E242A",
"1  c #702F23",
"2  c #6B3225",
"3  c #6A352A",
"4  c #68382A",
"5  c #7B3523",
"6  c #753C2A",
"7  c #7B3627",
"8  c #384130",
"9  c #3E5E3C",
"0  c #535839",
"q  c #74422B",
"w  c #7D432C",
"e  c #7C492D",
"r  c #754933",
"t  c #7A4B36",
"y  c #7B4736",
"u  c #685A3A",
"i  c #755938",
"p  c #49613D",
"a  c #6C623D",
"s  c #76623D",
"d  c #2A6B42",
"f  c #297244",
"g  c #257E49",
"h  c #416C41",
"j  c #98290E",
"k  c #95280E",
"l  c #862613",
"z  c #902911",
"x  c #88391D",
"c  c #9F341D",
"v  c #AC2F0C",
"b  c #A72C0B",
"n  c #B73108",
"m  c #843B23",
"M  c #833B2B",
"N  c #9D3928",
"B  c #8F3134",
"V  c #96373A",
"C  c #B23C27",
"Z  c #A03638",
"A  c #A43B27",
"S  c #CE3707",
"D  c #DC3D0C",
"F  c #D33703",
"G  c #C33714",
"H  c #8F4225",
"J  c #83462B",
"K  c #8B4B2A",
"L  c #934627",
"P  c #9C4A26",
"I  c #984726",
"U  c #87552D",
"Y  c #8B592E",
"T  c #8B563C",
"R  c #855B39",
"E  c #815637",
"W  c #9E5D34",
"Q  c #915230",
"!  c #A14D26",
"~  c #AA5325",
"^  c #A8592A",
"/  c #B65928",
"(  c #B85C26",
")  c #8D623D",
"_  c #986738",
"`  c #AC652C",
"'  c #AA642F",
"]  c #BB622A",
"[  c #BA702E",
"{  c #AC6936",
"}  c #A46235",
"|  c #B26E38",
" . c #BB753A",
".. c #B07D35",
"X. c #EB461B",
"o. c #E44319",
"O. c #D24126",
"+. c #EC4721",
"@. c #F34A24",
"#. c #F74C28",
"$. c #C4622A",
"%. c #CF6A2A",
"&. c #CB672A",
"*. c #D46C2B",
"=. c #C4762F",
"-. c #DD732C",
";. c #D5792E",
":. c #C07A3C",
">. c #C77B31",
",. c #E0742C",
"<. c #E27B2E",
"1. c #E17731",
"2. c #945B42",
"3. c #876F41",
"4. c #966E41",
"5. c #817544",
"6. c #9C7241",
"7. c #A47D46",
"8. c #A77448",
"9. c #A66B49",
"0. c #DC4E4C",
"q. c #ED5450",
"w. c #1A9A54",
"e. c #15A95A",
"r. c #11B25E",
"t. c #B58337",
"y. c #DD8B33",
"u. c #DE8130",
"i. c #C9973C",
"p. c #D09E3D",
"a. c #E3802F",
"s. c #E68C33",
"d. c #E58334",
"f. c #E69234",
"g. c #E89435",
"h. c #E9953A",
"j. c #EC9A3C",
"k. c #D2A03E",
"l. c #AA8349",
"z. c #AE8A4C",
"x. c #B38E4D",
"c. c #B3924F",
"v. c #BC954A",
"b. c #BC9A52",
"n. c #B99550",
"m. c #D58B40",
"M. c #D98E42",
"N. c #DE9342",
"B. c #C19F53",
"V. c #C68758",
"C. c #EC9C43",
"Z. c #E09443",
"A. c #DAA840",
"S. c #C4A254",
"D. c #CDAC59",
"F. c #C9A857",
"G. c #D4B45C",
"H. c #D7B85D",
"J. c #DBBC5E",
"K. c #EEA047",
"L. c #F1A246",
"P. c #F2A348",
"I. c #EFBD44",
"U. c #E8B643",
"Y. c #F0BF47",
"T. c #DEBF60",
"R. c #F1C24B",
"E. c #F3CA55",
"W. c #F5CE59",
"Q. c #F6D15C",
"!. c #DFC161",
"~. c #E2C462",
"^. c #E7C964",
"/. c #EACD65",
"(. c #EED167",
"). c #F5D563",
"_. c #F1D568",
"`. c #F6DA6A",
"'. c #FADF6C",
"]. c #F8D763",
"[. c None",
/* pixels */
"[.[.[.[.[.[.[.[.[.[.[.[.[.[.[.[.[.[.[.[.[.[.[.[.[.[.[.[.[.[.[.[.[.[.[.[.",
"[.[.[.[.[.[.[.[.[.[.[.[.[.[.[.[.[.[.[.[.[.[.[.[.[.[.[.[.[.[.[.[.[.[.[.[.",
"[.[.[.[.[.[.[.[.[.[.[.[.[.[.[.[.[.[.[.[.[.[.[.[.[.[.[.[.[.[.[.[.[.[.[.[.",
"[.[.[.[.[.[.[.[.[.[.[.[.[.[.[.[.&     O [.[.[.[.[.[.[.[.[.[.[.[.[.[.[.[.",
"[.[.[.[.[.[.[.[.[.& O , 6 K W {  . .:. .| } Q w 3 # + ; [.[.[.[.[.[.[.[.",
"[.[.[.[.[.& 2 K | y.K.P.M.Z.j.h.g.h.j.L.P.P.L.L.C.m.m.:._ 7 - * [.[.[.[.",
"[.[.[.$ L =.y.g.g.C.K.} $ q [ g.g.g.g.g.C.K.L.C.J , e N.L.C.M.{ 6 ; [.[.",
"[.[.[.m -.<.f.g.g.g.y.$ # n.: f.>.` ` ` ` [ h.>.O R 4.' K.L.L.L.y.= [.[.",
"[.[.[.L ( 5 -.g.g.g.y.$     > s.L V [.[.V < y.>.O     ' f.f.h.g.y., [.[.",
"[.[.[.5 %.x ~ s.g.C.h.` X # =.d.] V q.q.0.1 f.f.J   2 s.C.C.g.g.;.= [.[.",
"[.[.[.$ -.~ m ,.h.[.d.<.-.-.,.,.,.L B V 7 $.,.1.<.u.s.g.[.[.g.f./ & [.[.",
"[.[.[.& ( ( 5 ,.1.<.,.,.,.,.,.-.-.*./ ~ &.1.,.,.,.,.,.a.s.h.f.<.7 [.[.[.",
"[.[.[.[.5 *.m ,.,.,.*./ ! H m 1 > > > > 1 7 m P ~ $.-.-.,.,.<.$.# [.[.[.",
"[.[.[.[.& I -.( 5 : 4 _ n.D.T.).`.'.'.'._./.T.B.7.r : > P *.*.$ [.[.[.[.",
"[.[.[.[.[.& $ Y B.^.`.'.!.0 0 8.'.'.'.'.(.D._.'.'.'._.G.l.3 # [.[.[.[.[.",
"[.[.[.[.[.[.$ i.I.].'.'.`.p r.w.b.'.'.~.2.8.y _.'.'.'.'._.r [.[.[.[.[.[.",
"[.[.[.[.[.[.[.q I.W.`.c.) 9 r.r.s '.'.z.V.9.7.'.'.'.'.'.b.* [.[.[.[.[.[.",
"[.[.[.[.[.[.[._ I.Q.'.a r.e.g r.a '.'.x.y S.`./.G.~.'.`.T.* [.[.[.[.[.[.",
"[.[.[.[.[.[.[.t.I.Q.'.b.d s i f b.`.'._.^.'._ l b k J /./.= [.[.[.[.[.[.",
"[.[.[.[.[.[.[...R.Q.'.(.c._.J.z.`.~.l.T.'.l.v F o.o.G l.^.= [.[.[.[.[.[.",
"[.[.[.[.[.[.[.U R.E.'.'.'.'.'.'.'.B.2.T T.o F X.#.X.N ^.D.& [.[.[.[.[.[.",
"[.[.[.[.[.[.[.@ k.R.'.'.'.'.J.b.T.`.T 4.B.k D #.X.O.7.`.t [.[.[.[.[.[.[.",
"[.[.[.[.[.[.[.[.6 U.E.'.'.l.z n z 8.~.6.T.z D @.+.M _.7.& [.[.[.[.[.[.[.",
"[.[.[.[.[.[.[.[.[.U R.Q.'.5 X.@.D z !.'._.w S #.C G.F.@ [.[.[.[.[.[.[.[.",
"[.[.[.[.[.[.[.[.[.q R.E.'.D.N o.#.n B.'.'.H.x G _ `.n.[.[.[.[.[.[.[.[.[.",
"[.[.[.[.[.[.[.[.[., I.R.'.'.B.A @.v D.`.'.'.G.) T.'.) [.[.[.[.[.[.[.[.[.",
"[.[.[.[.[.[.[.[.[.@ t.R.W.'.'.b.c J `.(.'.'.'.'.`.b.& [.[.[.[.[.[.[.[.[.",
"[.[.[.[.[.[.[.[.[.[.$ k.I.E.'.'.D.~.u h 4.`.'.D.E ; [.[.[.[.[.[.[.[.[.[.",
"[.[.[.[.[.[.[.[.[.[.[.= _ k.R.].'.z.w.w.u (.`.O [.[.[.[.[.[.[.[.[.[.[.[.",
"[.[.[.[.[.[.[.[.[.[.[.[.= Y I.Q.'.z.0 f 3.`.G.@ [.[.[.[.[.[.[.[.[.[.[.[.",
"[.[.[.[.[.[.[.[.[.[.[.[.[.= U.R.'.(.H.8 u _.4.[.[.[.[.[.[.[.[.[.[.[.[.[.",
"[.[.[.[.[.[.[.[.[.[.[.[.[.[.e U.Q.'.`.H.`.B.& [.[.[.[.[.[.[.[.[.[.[.[.[.",
"[.[.[.[.[.[.[.[.[.[.[.[.[.[.; q i.E._.F.R & [.[.[.[.[.[.[.[.[.[.[.[.[.[.",
"[.[.[.[.[.[.[.[.[.[.[.[.[.[.[.[.* - + + [.[.[.[.[.[.[.[.[.[.[.[.[.[.[.[.",
"[.[.[.[.[.[.[.[.[.[.[.[.[.[.[.[.[.[.[.[.[.[.[.[.[.[.[.[.[.[.[.[.[.[.[.[.",
"[.[.[.[.[.[.[.[.[.[.[.[.[.[.[.[.[.[.[.[.[.[.[.[.[.[.[.[.[.[.[.[.[.[.[.[."
};
