/* XPM */
static char *_d68c186b7484277bfa8c371e7a4aa9eLI6SGMkvODZIznQD[] = {
/* columns rows colors chars-per-pixel */
"64 64 246 2 ",
"   c None",
".  c #360303",
"X  c #2B1D0B",
"o  c #2F150B",
"O  c #3A2508",
"+  c #382915",
"@  c #2B221A",
"#  c #531014",
"$  c #6F1419",
"%  c #432705",
"&  c #49330B",
"*  c #493617",
"=  c #523914",
"-  c #432E14",
";  c #6D1C24",
":  c #473929",
">  c #523C22",
",  c #4B3E34",
"<  c #443A33",
"1  c #7F2D35",
"2  c #584118",
"3  c #574428",
"4  c #4D4235",
"5  c #4D4439",
"6  c #53463A",
"7  c #534A3D",
"8  c #574636",
"9  c #4E412D",
"0  c #644926",
"q  c #6A542B",
"w  c #77592C",
"e  c #6A573A",
"r  c #755B33",
"t  c #755C3B",
"y  c #765938",
"u  c #634D34",
"i  c #695324",
"p  c #554B41",
"a  c #5B4E42",
"s  c #5C4D48",
"d  c #5D5245",
"f  c #5D5449",
"g  c #62564A",
"h  c #65594D",
"j  c #6A5C4D",
"k  c #675642",
"l  c #6B5E52",
"z  c #675C50",
"x  c #735D4A",
"c  c #566D4A",
"v  c #7B6649",
"b  c #6D6155",
"n  c #6A6851",
"m  c #736454",
"M  c #74655A",
"N  c #7B6C5B",
"B  c #776957",
"V  c #6B7759",
"C  c #79775C",
"Z  c #6E614F",
"A  c #7C6C64",
"S  c #7A6A63",
"D  c #7B7A62",
"F  c #9D3F3C",
"G  c #865D33",
"H  c #94563A",
"J  c #84673C",
"K  c #A73E4C",
"L  c #8E5B41",
"P  c #965344",
"I  c #A55B47",
"U  c #AA5C5B",
"Y  c #BA5A56",
"T  c #AF4F4A",
"R  c #826B49",
"E  c #8C724B",
"W  c #856D5A",
"Q  c #8B7254",
"!  c #85735D",
"~  c #89785B",
"^  c #927B5C",
"/  c #977856",
"(  c #9B6D4C",
")  c #A86956",
"_  c #B4655B",
"`  c #A27853",
"'  c #B75A62",
"]  c #836E64",
"[  c #847464",
"{  c #8A7665",
"}  c #857A65",
"|  c #84756C",
" . c #867A6B",
".. c #8B7B6B",
"X. c #8B7965",
"o. c #927C6C",
"O. c #967A67",
"+. c #8A7C72",
"@. c #957E71",
"#. c #9D6E65",
"$. c #AC6966",
"%. c #B56868",
"&. c #AB7668",
"*. c #AC7C73",
"=. c #A67871",
"-. c #B77978",
";. c #B5726B",
":. c #9B5660",
">. c #C75E5E",
",. c #C1625C",
"<. c #CC5C63",
"1. c #D55D6A",
"2. c #C8676B",
"3. c #D5666A",
"4. c #DB6976",
"5. c #C7777B",
"6. c #D5757A",
"7. c #CC716B",
"8. c #E86878",
"9. c #E4656A",
"0. c #7B8365",
"q. c #789771",
"w. c #978359",
"e. c #A98B54",
"r. c #85836B",
"t. c #8C826D",
"y. c #878567",
"u. c #9B8466",
"i. c #94836B",
"p. c #9B856B",
"a. c #9B896C",
"s. c #968768",
"d. c #8E8373",
"f. c #8E8A78",
"g. c #958474",
"h. c #9A8473",
"j. c #958974",
"k. c #9C8A74",
"l. c #94857B",
"z. c #9B867B",
"x. c #948A7B",
"c. c #9B8C7C",
"v. c #8A9977",
"b. c #9B927E",
"n. c #979878",
"m. c #8C916F",
"M. c #A28D6E",
"N. c #A38869",
"B. c #A8936C",
"V. c #A28473",
"C. c #A38C73",
"Z. c #A38B7B",
"A. c #A88579",
"S. c #B9817C",
"D. c #A69372",
"F. c #A4927C",
"G. c #AB947B",
"H. c #AB9978",
"J. c #B49975",
"K. c #B39264",
"L. c #BAA378",
"P. c #CEAF79",
"I. c #C3A16D",
"U. c #E6C97F",
"Y. c #CA7C83",
"T. c #DD7B83",
"R. c #EB7B87",
"E. c #9D8D82",
"W. c #998985",
"Q. c #9D9283",
"!. c #9E9489",
"~. c #A38E82",
"^. c #AA8C83",
"/. c #B88B83",
"(. c #A39484",
"). c #AA9385",
"_. c #A59B85",
"`. c #AB9B84",
"'. c #A59689",
"]. c #AB958A",
"[. c #A6998A",
"{. c #AA9A8C",
"}. c #B7978A",
"|. c #AC9D93",
" X c #A99F99",
".X c #B19D93",
"XX c #B89F95",
"oX c #9EAE8C",
"OX c #A8A488",
"+X c #B5A58B",
"@X c #B9A688",
"#X c #AEA294",
"$X c #ABAB93",
"%X c #B4A394",
"&X c #BBAA93",
"*X c #BAA69A",
"=X c #BBAA9A",
"-X c #B7A797",
";X c #ACB797",
":X c #B5A4A2",
">X c #C38986",
",X c #D8868A",
"<X c #C3978E",
"1X c #CC9494",
"2X c #E4828C",
"3X c #EB9297",
"4X c #F9939B",
"5X c #ED8991",
"6X c #C5AC87",
"7X c #C8B689",
"8X c #C2A696",
"9X c #C6B598",
"0X c #D5BD95",
"qX c #D2BB85",
"wX c #FB99A4",
"eX c #E2B49B",
"rX c #B3C2A1",
"tX c #D7C39C",
"yX c #E4CA8D",
"uX c #F8DC99",
"iX c #E8D198",
"pX c #FCE29E",
"aX c #D8C8A7",
"sX c #CCDCB9",
"dX c #ECD9A8",
"fX c #F6DAA9",
"gX c #E9D8B6",
"hX c #ECCFA9",
"jX c #CEE3BF",
"kX c #F8E4A7",
"lX c #FBE5BB",
"zX c #F9E6B7",
"xX c #F2E6B4",
"cX c #DBE9C8",
"vX c #E9E9CB",
"bX c #FCEDC5",
"nX c #F8EACA",
"mX c #FDF2C3",
"MX c #FEF3CB",
"NX c #F3EDD1",
"BX c #EEFAD8",
"VX c #FEF5D4",
"CX c #FFFBD6",
"ZX c #F6F5D7",
"AX c #EFEAD0",
"SX c #F8FFE2",
/* pixels */
"                                                                                                                                ",
"                                                                                                                                ",
"                                                                    X.Q                                                         ",
"                                                            = 0 R O.~ x                                                         ",
"                                                          u W =.] ] l u >                                                       ",
"                                                      0 R V.] ] ] s 6 , > *                                                     ",
"                                                    r R { S +.M 6 s p 6 3 3 r                                                   ",
"                                                  q v W ] ] | l , < , , : * q                                                   ",
"                                                = v W A S A b g M @.l.|  .[ x 2 2                                               ",
"                                                3 B m S S M M ] ] S A | M n v u 0                                               ",
"                                                e M S l M b M M M M s s 4 4 : * e                                               ",
"                                              3 h M b b b b l z h s p p 9 d k 3 e                                               ",
"                                              > l h b b z j h j s , 7 , h m m j 3                                               ",
"                                            k > j h l l j h h s a , 8 , b B N k k ~                                             ",
"                                        E H.g.k u h h h j h h d 8 s , 7 b b b 8 { D.C.^                                         ",
"                                      w.D.`.(.M 6 s h g h h h d , s 8 s b b d 8 o.(.C.M.N.                                      ",
"                                    D.OXG.{.[.x., d a g h h h f p , 6 h l h , B c.F.F.F.D.a.t                                   ",
"                                  M.H.H._.{.|.!.h 4 p f g g g h f 7 d g g 6 6 ..{.].(.b.F.F.s.                                  ",
"                                M.`.F._.{.|. X|.x.< 7 7 g g g f g d g d 8 4 Z Q.(.(.!.(.!.b.k.^ E                               ",
"                              C.F.[._.OX[.]. X|.!.h , 7 7 f f h h g d 8 6 8 A '.[.'.'.(.Q.Q.Q.k.s.                              ",
"                            G.G.(.(.E.W.c.'.|.#X X+.6 < 7 5 p f d p 7 6 4 m c.`.[.[.Q.Q.E.x.f.g.p.^                             ",
"                            C.`.F.+.+.^.z.o.g.z..XW.M 5 5 7 7 7 7 7 7 4 h d.{.'.(.[.c.+. .g.z.@.! X.R                           ",
"                          N.G.i.o.A.}.}.<X/.].A.z.].f.M 5 5 p 7 7 7 4 8 +.'.'._.{.o.g.^.}.<X<X/./.O.O.e                         ",
"                        u.Z.A.{ @.A.S.-.>X>X1X/.).|.|.f.c 5 7 5 7 5 4 M [.{.[.'.].^.).<X>XS.S.S.*.A.W ^ t                       ",
"                      N.C.Z.@.{ #.=.S.Y.5.5.5.S.]..X|.[.r.p p 5 7 4 z ~.|.[.{.'.).)./.-.-.5.Y.-.=.=.W X.Q                       ",
"                      O.Z.).Z.A.=.=.;.Y.,X,X,X>X|..X#X#X!. .< 5 : d ~.|.].].[.(.).)././.,XT.Y.$.#.=.@.k.i.t                     ",
"                    ~ { h.z.F.].)./.S.#.;.S.>X/..X|.|.|.#X|.+.a b !.[..X].].(.(.(.~.^.S./.-.%.*.*.A.z.c.g.W Q E                 ",
"                D.u.X.@.z.E.E.Q.(.^.]./.A.A.}.].].|.{.|.[.|.[.x.Q.|.{.].].].].(.(.b.).^.*.=.;.A.V.z.j.j.x.r.y.D.                ",
"              C.G.{ g.c.E.~.x.b.Q.(.).).].(._.{.].{.{.{.|.[.'.{.{.'.'.].].].].~.(.(.c.z.Z.Z.Z.x.l.k.z.x.l.l.A _.H.^             ",
"            / @X@.{ x.W.E.E.Q.Q.Q.c.F.).`.`.[.[.'.'._.[.[.{.(.[.(.'.{.'.].].(.E.(.(.(._.(.c.g.E.x.h.k.k.W.+. .f.&XN.w           ",
"            J.XX| +.l.E.z.z.E.c.j.Z.(.}.*X*X-X|.{.'.'.(.'.{.'.'.'.'._.'.Q.Q.'.]..X%X=X=X+XQ.x.x.x.h.C.V.@.M A A *X}.            ",
"            J..X] W.W.l.z.E.z.g.g.c.Z.).}.XX*X*X-X[.'._.].(.].(.].(.b.!.E.Q.(.%X*X=X-X{.`.b.x.f.x.i.V.V.#.M ] S .X*XO.          ",
"            D.g...l.g.k.h.c.h.[ { g.g.(.Q.{.%X-X-X%X[.(.'.(.(.(.(.).).(.!.'.%X%X&XXX{.].Q.j.g. .[ h.V.V.C.[ S A W.].C.          ",
"            C.X...g.h.C.a.p.C.[ N  .o.c.c.(._.{.%X=X{.(.E.c.g.@.o.g.z.~.(.{.:X.X{.(.F.Z.z.g. .N W p.V.p.j.z.| | l.).O.          ",
"            i.N f.k.j.a.p.p.G.X.! B ! o.i.Z.c.(.{.%X+X].g. .{ [ | | ..l.E..X*X{.(.`.c.i... .! W O.G.M.M.k.c.l.l.| o.L           ",
"              n d.l.h.u.a.D.9XD.O.R m [ [ ..g.E.(.{.{.Z.| {  .} [ } [ ..@.{.].'.b.j.} ..} j B X.p.&XJ.p.k.b.c.x.B W x           ",
"            k.N g.x.k.a.N.P.gXB.X.~ t._.q.V D +.g.c.x...[ { { | [ D }  .] E.z.x.r.0.C C b.j.0.~ u.aX0XC.k.k.x.i.B p./           ",
"            @Xj. .c.j.u.B.0XgXB.^ ~ OXBXrX0.V q.r.t...[ ! ....h.l.d.} { N  .r.m.0.0.V ;XBX$XD ~ w.gXdXH.D.k.c.t...XX/           ",
"            +X_. .t.c.a.J.dXmX@Xw.C OXCXcXq.c c V r.N m O.}.XX8X8XXX].i.N [ C V c c v.sXBX;XC w.B.xXlX@XD.a.j.C `.8XQ           ",
"            H.'.N i.j.M.L.fXbXtXs.y.n.BXcXoXq.0.C n B ! /.8XS.=.=.S.<X}.O.m N V 0.q.;XcXSXj.C w.@XlXbX7XB.m.i.N `.}.^           ",
"              m n N j.D.7XxXmXgXH.~ B OXcXBXjX;Xv.d.g.S.<X-.;.-.5.$.%.>X<Xh.j.y.;XjXBXvX_.y.! a.tXMXlXtXH.s.N Z B k 0           ",
"          O * + 9 h D a.7XgXMXbX9Xw.~ } m.n.n.y.r.j.Z.}.-.%.3XwX3X2X2.-.S.V.C.y.0.v.v.m.y.~ } @XdXMXlXaXH.y.e : + > %           ",
"          % * + 3 m F.B.7XgXmXCXNX9X+XOX_._.m.y.k.h.A.&.%.3XwX4X4X4X2X2.&.*.N.k.y.y.OXH.b.+X9XxXnXMXzXtXH.F.t.j X * X           ",
"            = 3 8 D.+XJ.P.dXbXZXCXNXAXAXAXZXgX&Xi.N.&.$.,X5XwX4X4X4X5X6.%.$.*.o.n.aXBXBXvXZXSXCXVXlXkXqXJ.@X`.X.= 2 &           ",
"          w w y X.@X&XJ.J.iXzXxXMXCXCXCXCXVXVXnXJ.;._ %.2X3XY.wXwXT.3XT.5.:.;.p.gXCXCXCXCXCXCXmXlXkXiXP.B.8X&X{.e t             ",
"            w e D.@X9XH.B.7XxXxXxXzXmXmXmXMXbXlXK.;.U 2.1X:.; Y.,X; :.T.T.%.&.V.gXVXbXmXmXbXmXkXkXkXyXB.B.+X9X-Xt               ",
"            w y G.&X+X}.M.J.tXuXkXkXkXkXzXfXlXhXK._ ' 2.%.# . $.-.. o %.T.1.:.&.eXzXzXzXzXkXkXpXkXyXB.B.H.&XOX&XR               ",
"              y @X+X+X+XZ.N.B.7XiXuXuXuXfXfXfX7X` _ 2.Y.P . . ' Y.. . 1 T.<.' $.<XdXkXfXuXpXpXiXyXK.e.a.).=X-X&XM.              ",
"              t 8X9X=X[.z.V.u.w.e.e.U.uXqXP.K.` ) Y 1.4.; # # R.6.$ # $ 3.2._ ) ` e.P.yXuXU.I.w.w.N.N.W.!.:X X&Xw.              ",
"              y +X+X$X!.z.z.N./               ) ) Y 1.8.K K >.R.8.<.F T 9.7.%.( J G             R u.=.W.W.:X:X&Xw.              ",
"              y &X&X$XQ.W.h.u.E                 I ,.<.<.T.4.1.8.8.9.3.3.3.7._ (                 L Q ~.W.W.#X=X+Xw.w             ",
"              y `.}.|.W.l.g.^ J                 H F >.>.1.2.1.1.1.3.>.3.>.%.I G                   Q @.z.W.!.$X+XQ w             ",
"              t S D W.0...s.v w                   G H I U Y U $._ $._ Y Y I H                     R X.t.t.x.} C v t             ",
"              = : < f < 4 8 v r                               L H L L I                           J e 6 5 p 4 , O 3             ",
"            0 O < < X < 9 X q                                   w J                               q * + < @ o , * 2             ",
"              O * @ X : : O r                                                                       * + 4 @ + + - &             ",
"                O = 3 O O 2                                                                         0 & O + 3 & % w             ",
"                2 r w 2                                                                                 & q r                   ",
"                                                                                                                                ",
"                                                                                                                                ",
"                                                                                                                                ",
"                                                                                                                                ",
"                                                                                                                                ",
"                                                                                                                                "
};
