/* XPM */
static char *result[] = {
/* columns rows colors chars-per-pixel */
"36 36 152 2 ",
"   c #171717",
".  c #191716",
"X  c #161917",
"o  c #191817",
"O  c #16171A",
"+  c #191719",
"@  c #16191B",
"#  c #1B1A1B",
"$  c #221A15",
"%  c #2A1C15",
"&  c #211E1C",
"*  c #361F15",
"=  c #25211D",
"-  c #352016",
";  c #392216",
":  c #33291F",
">  c #392B1F",
",  c #111B24",
"<  c #1E1E21",
"1  c #201F21",
"2  c #1F2123",
"3  c #232325",
"4  c #2A2522",
"5  c #2F2B26",
"6  c #24262A",
"7  c #29272C",
"8  c #27282C",
"9  c #2A2A2D",
"0  c #342D26",
"q  c #392B20",
"w  c #332D2A",
"e  c #362323",
"r  c #2F302F",
"t  c #36312C",
"y  c #3B342A",
"u  c #2C2D32",
"i  c #242B34",
"p  c #2E3136",
"a  c #26303A",
"s  c #2F3339",
"d  c #323236",
"f  c #3F3830",
"g  c #31333A",
"h  c #37393F",
"j  c #3B393C",
"k  c #4C2815",
"l  c #453C2F",
"z  c #433C33",
"x  c #433D39",
"c  c #4C4335",
"v  c #524738",
"b  c #574B3C",
"n  c #5D4F3E",
"m  c #293743",
"M  c #2E3749",
"N  c #2E3C4B",
"B  c #2B3A44",
"V  c #373942",
"C  c #393B43",
"Z  c #3E3F48",
"A  c #323D54",
"S  c #2E414D",
"D  c #3E424A",
"F  c #3C4250",
"G  c #3D485C",
"H  c #3E577D",
"J  c #414047",
"K  c #4D4A46",
"L  c #41434D",
"P  c #49474C",
"I  c #44494E",
"U  c #524945",
"Y  c #534F4E",
"T  c #53514E",
"R  c #5E5343",
"E  c #444652",
"W  c #464955",
"Q  c #484A57",
"!  c #474A58",
"~  c #494A58",
"^  c #4F5259",
"/  c #525155",
"(  c #54545C",
")  c #625542",
"_  c #6D5E4A",
"`  c #71624B",
"'  c #68655F",
"]  c #7C6B52",
"[  c #424F67",
"{  c #535662",
"}  c #545C62",
"|  c #595A64",
" . c #5E5E6A",
".. c #46597D",
"X. c #5E696E",
"o. c #5F6A73",
"O. c #5E6A7F",
"+. c #63636D",
"@. c #7E6F6D",
"#. c #676773",
"$. c #626E76",
"%. c #6B6C72",
"&. c #6F6D79",
"*. c #66727A",
"=. c #68747D",
"-. c #707173",
";. c #7E7D79",
":. c #816F54",
">. c #8B7659",
",. c #8E7B5F",
"<. c #948060",
"1. c #9A8461",
"2. c #9E8966",
"3. c #A28B66",
"4. c #A38C69",
"5. c #A6906B",
"6. c #A9916A",
"7. c #B69D74",
"8. c #BDA177",
"9. c #BCA078",
"0. c #C1A57A",
"q. c #CAAD7F",
"w. c #516687",
"e. c #52668A",
"r. c #6C7B85",
"t. c #667A97",
"y. c #74838D",
"u. c #778794",
"i. c #7A8B96",
"p. c #7E909B",
"a. c #828A90",
"s. c #81939F",
"d. c #8394A0",
"f. c #899CA9",
"g. c #9A9EA2",
"h. c #9FA2A7",
"j. c #9FAEB7",
"k. c #D2B586",
"l. c #DABA87",
"z. c #DCBD8A",
"x. c #E2C18E",
"c. c #EFCD94",
"v. c #EDCD98",
"b. c #F5D197",
"n. c #FBD79C",
"m. c #FED89E",
"M. c #F5D29B",
"N. c #A8B8C3",
"B. c #D2D2CF",
"V. c #D3D6D8",
"C. c #D9D9D8",
"Z. c None",
/* pixels */
"Z.Z.Z.Z.Z.Z.Z.Z.Z.Z.Z.Z.Z.Z.  o @ # #   + @ Z.Z.Z.Z.Z.Z.Z.Z.Z.Z.Z.Z.Z.Z.",
"Z.Z.Z.Z.Z.Z.Z.Z.Z.Z.Z.Z.# d #.#.+. . .( C 3   + + Z.Z.Z.Z.Z.Z.Z.Z.Z.Z.Z.",
"Z.Z.Z.Z.Z.Z.Z.Z.Z.Z.Z.+ ( #.~ L V V V h C V h s 7 # # @ Z.Z.Z.Z.Z.Z.Z.Z.",
"Z.Z.Z.Z.Z.Z.Z.Z.Z.@ # / | E L E E Q Q Q ~ ~ E Q Q Q L C 9 @ @ Z.Z.Z.Z.Z.",
"Z.Z.Z.Z.@ + 3 j P / ( { Q Q Q Q ~ ~ Q Q Q Q ~ Q Q Q ~ ~ ~ L 9 O Z.Z.Z.Z.",
"Z.Z.# 1 / &.+.{ ~ ~ ~ ~ Q Q Q Q Q Q Q Q Q Q Q Q Q ~ W Q ~ Q ! V @ O Z.Z.",
"Z.# C #.| V V E Q Q Q Q Q Q Q Q Q Q Q Q Q Q Q Q Q ~ Q Q Q Q ~ Q L 7 @ Z.",
"Z.# J 9 1 J Q ~ Q Q Q ~ W ~ Q Q Q Q Q Q Q Q Q Q ~ W Q Q Q ~ W ~ ! V + Z.",
"@   + 3 L Q ~ Q Q Q Q Q Q Q Q Q Q Q Q Q Q ~ W Q Q Q ~ Q Q Q Q E p & + Z.",
"Z.# 9 L Q ~ Q Q Q Q Q Q Q Q W ~ Q Q ~ ~ ~ Q ~ Q ! ~ ~ ~ Q Q Q u . 1 s + ",
"Z.# E ~ Q W Q Q Q Q Q Q Q Q ~ Q Q Q D W ! ~ Q Q E E ~ ~ W E u 7 d # C @ ",
"@ u E E Q Q Q Q Q Q Q Q Q Q Q Q W C g E Q ! ~ L u E Q E E 3 o 5 r & u 3 ",
"@ j u V ~ ~ ~ ~ Q Q Q Q Q Q W E V g s D ! W V 6 6 Z V u # R ] ,.b & 9 & ",
"@ 1 3 V ~ E E W Q Q Q Q ~ Q E V g g g C E D u @ 3 3 & 0 0 c ] l.>.$ + # ",
"+ + 6 V W V V Q Q ~ E Q E Q V g g u u g C h 3   # # y ` >.] ) 0.] . @ @ ",
"@ + 3 h Z g g E Q L V L ~ L g s g u u g g s < 4 = Y ( N M K ] M.) @ Z.Z.",
"@ # 3 g g g g h L C g g C V g g g 8 u s g s + t U B.e.w.O.G 3 k.z # Z.Z.",
"@ @ # u s u s g g g g s s g g g s 8 3 s s s $ 1 ,.V.H [ 9 W d 6.0 @ Z.Z.",
"Z.Z.+ 3 u 3 p g g g g g s m p g s u < p g s # f { V.t...A D 0 k.t @ Z.Z.",
"Z.Z.@ @ < + 3 g g g g s s g j g g u + 8 s g # R _ +.%.{ D = <.c.z @ Z.Z.",
"Z.Z.Z.Z.+ + + 7 u g g g 6 u g g g s 1 < 9 s 1 5 v.8.3.1.2.8.b.l.0 @ Z.Z.",
"Z.Z.Z.Z.Z.@ @ @ < 6 u g 9 < 7 u g s u + 1 1 7 + 8.m.n.m.m.n.z.n + Z.Z.Z.",
"Z.Z.Z.Z.Z.Z.Z.Z.Z.@ < 1 6 3 # # 1 9 s 6 + . < + 0 7.q.8.4.` t @ Z.Z.Z.Z.",
"Z.Z.Z.Z.Z.Z.Z.Z.Z.Z.Z.Z.@ # +   + # 1 1 # + . $ & = 3 # + Z.Z.Z.Z.Z.Z.Z.",
"Z.Z.Z.Z.Z.Z.Z.Z.Z.Z.Z.Z.Z.  # # 6 $.h o 3 3   5 ,.< , Z.Z.Z.Z.Z.Z.Z.Z.Z.",
"Z.Z.Z.Z.Z.Z.Z.Z.Z.Z.Z.Z.@ s I # X.s.s.X } y.9 2 @ O Z.Z.Z.Z.Z.Z.Z.Z.Z.Z.",
"Z.Z.Z.Z.Z.Z.Z.Z.Z.Z.Z.Z.  X.< r $.s.f.p D i.r.2 m @ Z.Z.Z.Z.Z.Z.Z.Z.Z.Z.",
"Z.Z.Z.Z.Z.Z.Z.Z.Z.Z.Z.O 3 *.# J a.j.N.} 9 y.p.s N < Z.Z.Z.Z.Z.Z.Z.Z.Z.Z.",
"Z.Z.Z.Z.Z.Z.Z.Z.Z.Z.@ o d $.# j %.g.h.T X r.f.^ a i @ Z.Z.Z.Z.Z.Z.Z.Z.Z.",
"Z.Z.Z.Z.Z.Z.Z.Z.Z.Z.3 7 C $.& z v c v : s y.f.u.6 m @ Z.Z.Z.Z.Z.Z.Z.Z.Z.",
"Z.Z.Z.Z.Z.Z.Z.Z.Z.Z.1 & I } y 7.x.x.x.) 9 y.f.f.2 S O @ Z.Z.Z.Z.Z.Z.Z.Z.",
"Z.Z.Z.Z.Z.Z.Z.Z.Z.@ x 4 # # o = 2.q.4.  h $.=.o.3 2 O , Z.Z.Z.Z.Z.Z.Z.Z.",
"Z.Z.Z.Z.Z.Z.Z.Z.Z.# U x w # O $ : : > > $ . $ . + Z.Z.Z.Z.Z.Z.Z.Z.Z.Z.Z.",
"Z.Z.Z.Z.Z.Z.Z.Z.Z.@ t w < Z.+ # . % % % . $ % . Z.Z.Z.Z.Z.Z.Z.Z.Z.Z.Z.Z.",
"Z.Z.Z.Z.Z.Z.Z.Z.Z.Z.Z.Z.Z.Z.Z.  ; k k - $ * *   Z.Z.Z.Z.Z.Z.Z.Z.Z.Z.Z.Z.",
"Z.Z.Z.Z.Z.Z.Z.Z.Z.Z.Z.Z.Z.Z.Z., + $ $ . O O   Z.Z.Z.Z.Z.Z.Z.Z.Z.Z.Z.Z.Z."
};
