/* XPM */
static char *b055dea123ee4f33e009639da185c457weZYu7oeGd0fcen1[] = {
/* columns rows colors chars-per-pixel */
"64 64 247 2 ",
"   c None",
".  c #171006",
"X  c #390804",
"o  c #35150A",
"O  c #391A19",
"+  c #291007",
"@  c #3C2617",
"#  c #2E2310",
"$  c #3E1E23",
"%  c #382924",
"&  c #332F2D",
"*  c #1D1D22",
"=  c #4A0302",
"-  c #460605",
";  c #530203",
":  c #5A0203",
">  c #580A05",
",  c #451A05",
"<  c #531C13",
"1  c #690604",
"2  c #790805",
"3  c #681605",
"4  c #7B1606",
"5  c #7A1415",
"6  c #681812",
"7  c #48260B",
"8  c #472817",
"9  c #473519",
"0  c #573718",
"q  c #572F11",
"w  c #782905",
"e  c #643719",
"r  c #6B3214",
"t  c #492A26",
"y  c #552B28",
"u  c #4C3628",
"i  c #57342A",
"p  c #443A36",
"a  c #593637",
"s  c #512F3C",
"d  c #683627",
"f  c #623B3C",
"g  c #683836",
"h  c #72332E",
"j  c #31722C",
"k  c #354F21",
"l  c #52421B",
"z  c #7A5A19",
"x  c #714D1C",
"c  c #5B4727",
"v  c #574637",
"b  c #4F4934",
"n  c #654C28",
"m  c #6A542A",
"M  c #785628",
"N  c #66483A",
"B  c #695536",
"V  c #755A35",
"C  c #754631",
"Z  c #4A6D32",
"A  c #796539",
"S  c #776129",
"D  c #5D3B43",
"F  c #663A43",
"G  c #773D45",
"H  c #3C5D46",
"J  c #594844",
"K  c #4F514D",
"L  c #694746",
"P  c #794548",
"I  c #6B5B47",
"U  c #675856",
"Y  c #775A56",
"T  c #735448",
"R  c #53674E",
"E  c #786647",
"W  c #766856",
"Q  c #716850",
"!  c #6E5E65",
"~  c #696769",
"^  c #746C67",
"/  c #78736A",
"(  c #787576",
")  c #696571",
"_  c #5E5D64",
"`  c #880806",
"'  c #940302",
"]  c #9C0303",
"[  c #950C0B",
"{  c #990907",
"}  c #871706",
"|  c #961309",
" . c #871817",
".. c #971814",
"X. c #970F12",
"o. c #A30203",
"O. c #AB0304",
"+. c #A4050A",
"@. c #AB040A",
"#. c #A20B0B",
"$. c #AB0C0A",
"%. c #A80A05",
"&. c #B60606",
"*. c #A71509",
"=. c #A61517",
"-. c #B11112",
";. c #85270B",
":. c #952718",
">. c #963817",
",. c #892D17",
"<. c #AC2B13",
"1. c #91342D",
"2. c #B0372D",
"3. c #A81E21",
"4. c #C8100C",
"5. c #CC2F1B",
"6. c #CA3426",
"7. c #95421B",
"8. c #984925",
"9. c #8B522F",
"0. c #B2502E",
"q. c #836438",
"w. c #B36636",
"e. c #BA4B1B",
"r. c #D5412D",
"t. c #DF5532",
"y. c #AB3D40",
"u. c #845049",
"i. c #B0564D",
"p. c #88754A",
"a. c #89775B",
"s. c #8F6F51",
"d. c #B16D54",
"f. c #857A65",
"g. c #857B76",
"h. c #947B76",
"j. c #91746A",
"k. c #AF766F",
"l. c #835D66",
"z. c #CE5A51",
"x. c #CC6D56",
"c. c #D2786E",
"v. c #46812E",
"b. c #738A59",
"n. c #B38B33",
"m. c #928753",
"M. c #B18F52",
"N. c #898579",
"B. c #958876",
"V. c #95896E",
"C. c #A68C68",
"Z. c #AA9572",
"A. c #AF9073",
"S. c #BCA275",
"D. c #F18E52",
"F. c #C8A859",
"G. c #CDA552",
"H. c #CF9874",
"J. c #E59379",
"K. c #D4A966",
"L. c #D7B668",
"P. c #D4B775",
"I. c #CFAC71",
"U. c #EBB373",
"Y. c #C09B4D",
"T. c #B3C07A",
"R. c #EDCA71",
"E. c #7C7C84",
"W. c #A17D86",
"Q. c #7E8282",
"!. c #888786",
"~. c #978A87",
"^. c #96948A",
"/. c #8B8B93",
"(. c #9B9B9D",
"). c #989698",
"_. c #919499",
"`. c #A48989",
"'. c #A79886",
"]. c #B39A89",
"[. c #A39C9D",
"{. c #A99B97",
"}. c #B69190",
"|. c #98A29E",
" X c #B6A986",
".X c #A7A59C",
"XX c #B7A699",
"oX c #AAA587",
"OX c #9A9AA3",
"+X c #A59CA3",
"@X c #9DA1A3",
"#X c #A4A4A4",
"$X c #A9A3A4",
"%X c #ACABAC",
"&X c #A7A7A9",
"*X c #B6A9A7",
"=X c #B9B2A7",
"-X c #B5ADB2",
";X c #AEB3B5",
":X c #BABBBC",
">X c #B7B6B5",
",X c #ADAFB0",
"<X c #D1978E",
"1X c #CFB094",
"2X c #EBAA8F",
"3X c #C4B5AA",
"4X c #C8B9B7",
"5X c #D1B5AA",
"6X c #F0B5AC",
"7X c #E29E96",
"8X c #BCC4A2",
"9X c #D9C990",
"0X c #F6D587",
"qX c #F0D195",
"wX c #D7C6A8",
"eX c #DAC7B5",
"rX c #CCC8B5",
"tX c #E7D7BB",
"yX c #ECCEAF",
"uX c #FBE7BA",
"iX c #FCE5AA",
"pX c #FFE291",
"aX c #BCBCC3",
"sX c #CEBDC3",
"dX c #BEC2C0",
"fX c #C8C6C7",
"gX c #D6C9C9",
"hX c #DBD4C8",
"jX c #D9D8D8",
"kX c #D1CED2",
"lX c #E8CCC5",
"zX c #E6D6C8",
"xX c #FAD9C9",
"cX c #E7DAD7",
"vX c #FBDAD3",
"bX c #EBE6D9",
"nX c #F5E9D9",
"mX c #F6ECCF",
"MX c #DADDE3",
"NX c #E6DEE1",
"BX c #DFE1E5",
"VX c #ECECEB",
"CX c #E8E7E6",
"ZX c #FAF5EA",
"AX c #FCFBFB",
"SX c #F7F7F4",
"DX c #F0EEEE",
/* pixels */
"                                                                                                                                ",
"                                                                                                                                ",
"                        x                   q.q.M                                                                               ",
"                        7 M               q.V XXZ.V                                     0 m                                     ",
"                      E m               q.B W tXhXA                                     n p.c                                   ",
"                    m 9Xq.              A E 3XbXZXoXA                                   l tXm.m                                 ",
"                  m Z.mXE           A B B '.zXVXZXbXZ.m S                               c mXtXA                                 ",
"                  / hXmXW A A   q.V m B Q lXjXCXSXDXjXR b V S S                         b nXZX].n                               ",
"                V rXZXSX^.B E A V B N.{.{.gXjXNXAXSXCX(.oXa.B B V                     n W ZXZXmXm                               ",
"                E hXSXSXcXI ^ B.XXW {.rX!.).*X:XkXfX%XW.fX.XR V.f.I B S               B =XSXAXZXf.                              ",
"                m.nXDXVXdX=XrX>X*X~ !.fXfX,X%X%X;X;X;XMXjXN.~ N.f.N./ B n         m B B.bXAXAXVXoXc                             ",
"                B.CXDX;XfXZXSXhX>X|.( ) #XkXVXCXCXCXMX&Xb.Q./.Q.b./ / / I B A m m B a.bXDXAXVXVXXX                              ",
"                B.CXaX&XSXAXVXdX:X>XdX;X@X!.Q.b.E.!.!.&X&X@X/.Q.) _ _.!.( W Q ^.XXzXbXSXSXSXCXVX XB                             ",
"                B.rXOXjXfXdX:X:XaXdXaX:XaXaXaX:X:X%X,X&X&X|./.Q.) sXkXMXjXjXcXjXbXnXDXAXSXBXCXcXoX                              ",
"              A W !.#XMX;X;X;X;XaXaXaX:X:X:X:X:X>X;X,X|.)./.!.( Q.DXVXVXVXDXDXSXAXAXSXVXMXBXMXgXa.                              ",
"              M B N._.&XOX,X&XaXaXaXdXdXdXdX:X:X;X&X&X|./.^.!./ !.AXAXAXAXAXAXAXSXCXBXMXMXMXkX>XE                               ",
"                n N.).).|..X.X&X&X,X%X-X-X-X,X&X#X[.(.).).~././ / CXVXDXVXCXNXjXjXjXMXMXkX4X4X'.m                               ",
"                m N.^..X)..X.X$X&X+X#X$X%X%X$X&X#X+X[.(.).~.^.g._ %XkXsXgXkXkXMXjXjXhXrX>X=XXXE                                 ",
"                I ^.)._.@X+X+X$X+XOX@X#X#X$X$X$X$X{.(.).)./././._ ) -XkXgXsXgXfXdX;X;X;X:XB.E                                   ",
"                E !.(.OX+X[.[.$X@XOX(.#X#X.X|..X|.).)._._.(.OX/./.) ) %X4X>X=X>X;X,X=X.XB.E m           B a.p.                  ",
"                V..X|.).+X+X[.(._._.OXOXOX|.|.|.|._._.&X:XCXkX/.E./.E._ .X,X>X=X=X=XZ.I B m           n a.~.B.T                 ",
"                zXcX>X{.{.{.[.+X_.OX).(.).)._.^.).>XfXDXSXjXkX/./.E.E.g.R Q / ^ Q c v V               B h.~.g.B n               ",
"              m tXZXDX4X~.`.`.+X_._./.~.`.{.XX1X6XvXvXlXzXbX:X^.( ^ ~ ^ W N.V.W I m M             V n @ u I B B                 ",
"              M 5Xk.k.k.1.}.}.`.Q.!.^.*X<Xc.i.1.i.c.k.j.k.cX4Xg.U N.3XeXwX XV.W B c 0             c 9 8 @ c n                   ",
"              M <Xi.5 :. .i.6X*X).rXzX6Xd.3.X.#.3.X. .h <XcX3X^ Q '.tXmXmXuXuXZ.C 7 ,           n 7 9 # 0                       ",
"              8.,.:.X.+.+...i.lXZXvX7X2...+.+.&.@.' '  .1.F Y Y E A.9XiXiXuXuXmXj.6 1 3 3 3 r d 9 9 8 #                         ",
"              7.0...` -.-.X. .5XNX6Xi...{ -.4.4.-.{ [  .5 `.}.u.V H.yX0XqXiXiXuX<X5 5 2 4 1 > r 8 7 o m                         ",
"      w ;.>.:.,.c.i.,.` X.`  .c.5Xi. .X.[ =...| ..:.:.u.<XgXXXY V H.qXJ.x.0.z.c.z. .` 2 2 2 3 > , 7 l                           ",
"    7.;.} <.<.| z.x.2.8.z.c.7X6XvXd.2 ` 2 4 w 8.J.7XH.k.yXwX].E V i.Y.2.| ' *.| } ` ` 2 2 2 2 : 3 e q.                          ",
">.>.e.<.*.<.5.5.6.r.6.z.6XvXxXxXvX6X<Xc.x.i.7.0.w.z.r.0.Y.H.H.M.8.:.<.{ ] %.%.] 6...2 ` 2 1 2 : = r                             ",
"| } | *.5.t.t.4.4.4.4.z.2XlX6X6X6X6X6Xz.*.r.r.r.6.5.5.5.6.0.D.U.e.*.{ &.4.5.5.5.3.=.X.` 2 1 1 : > < e                           ",
"} ` } ' { t.5.&.&.4.4.-.6.z.c.7Xc.z.y.-.&.&.-.&.4.4.4.4.*.e.D.D.*.o.%.&.&.@.] ' [ 2 2 1 1 : ; = X X q                           ",
">.>.;.| | 6.6.{ O.O.@.@.#.X...3...| { o.@.O.O.$.O.&.&.@.| e.D.D.*.*.%.O.O.o.o.] ` 1 1 : ; = X X X o <                           ",
"    8.>.:.} ;. .[ X.+.+.] +.] +.$.#.{ o.O.O.o.] o.@.] ` } w w.D.2.*.&.3.-.#.' { [ 1 ; = ; X X X X 8                             ",
"    x w w ;.8.8. .| [ { { { #.#.{ ' | @.O.O.O.o.o.{ X.:.i.J.J.z.| ] ] ' =.X.[ 2 1 : = - - X + X 8 q.                            ",
"        8.      >.} [ X.#.X.X.{ ` ' { o.o.o.' { { ` | i.c.,.X.[ { ] ' ` 2 6 1 1 : ; = > g < X + P A.                            ",
"                7.} ` *.-.#.$.#.] ' ' o.o.o.o.o.+.#.#.....#.+.{ [ ` 2 : ; ; ; ; : ; = r A.a.o + <X Xp.                          ",
"                7.;.} #.@.@.@.-.*.] o.o.o.O.O.@.O.@.@.@.@.o.] ' 2 1 ; = X - - ; ; , d 1XuXqXZ.T wXu.B S                         ",
"                  w ` ' @.@.@.$.-.$.@.o.o.%.o.o.O.O.O.O.O.' ` ` 1 : = = - X X X 7 m.wXuXiXuXuXyXa.I E m.m.E A S                 ",
"                  >.;.` ' o.o.o.o.%.%.%.o.o.o.o.o.o.o.O.] ` ` 1 : ; ; = = X + # k b.8XqXqXuXwX1X3XmXZXmXnXmXmXtXm.m             ",
"                  8.7.4 ` ] ] o.] %.%.%.O.o.o.o.' ' ` ` ` 2 1 : = = = = X + + k j v.b.T.qXwXwXeXnXgXXXh.f.h.~.3XtXZ.s.          ",
"                    9.w 4 ' { #.#.{ { %.o.o.o.] X.` 2 6 > = = X , X X X o # k v.j j v.b.wX1XtXZX*XL s s D D a a }.xX1X          ",
"                        ;.} ` { { { { { #.] ' ` 5 i.9.T T 8 o 8 @ @ o # # R R j k j j Z V.zXnX}.y a s F D D F F g A.lXC.        ",
"                          ;.4 2 [ ` ' X.` 2  .6 k.7X5XW b v a v v L B v b b b R Z m l 9 }.DXlXY F F F F U L L P f f `.wXp.      ",
"                          >.;.4 ` ` [ ` 2 6 h k.lXlXlXY J L U W L T L N N N f L h h u.h.5XbX+XF a F F `.gXhX=XY F i Y wXm.      ",
"                              w 3 3 } 1.6 g k.6XeXlX5Xa L L Y 5Xh.u s t a y u i < y h.g.cXsXh.f y y Y 4XjXDXZX{.f N N eXC.      ",
"                                K.w.d.2Xu.y L j.B.u.a y t J Y 3XgXU & % % % % t % 9 0 W eXsX! a g d j.sXkXBXCX4XP f a eXZ.      ",
"                            M.K.U.K.P.2XA.f F F P G g y t J ^.%Xl.& & p b & & & u s.1XS.eXgXh.a g N l.sXgXkXlX}.a a a wXC.      ",
"                            G.U.F.F.L.P.M.i N P u.G G g t O * & * * * K K K p % Z.qXiXP.5XsXOXD a d f `.4X4X}.P P D T eXm.      ",
"                            M.L.L.G.F.L.M.i h G u.G g g $ . p Q.E._ K K K v b k m.0X0XP.1XcX-XL a L g L l.l.Y F L a j.wXp.      ",
"                              F.L.G.Y.G.M.q e g G F F y O * E.;XaXQ.K K K b l l m.n.F.9XS.tXlXW.D f f F F F a a i a.5XA.        ",
"                              F.R.G.L.L.K.M e g g D F % . ) aX,XaXkXR D K b 9 q.pX0XR.R.2XA.eXlXY i a s D L f c E wX9Xq.        ",
"                              Y.L.U.U.L.L.P.C.i $ t O + . OXsXcXBXbX^.p v p 9 l 9XqXpXR.R.I.C.wXtX].h.L U L W ].6XS.p.M         ",
"                                Y.K.F.K.F.M.p.0 X $ $ $ $ W.cXbXrX.Xb.# p % t O A.0XpXR.R.R.P.I.1XwXeX3X*X3X3X1XC.p.V           ",
"                                          A M 0 O $ 8 O O XXeX XA V B p D s i 0       G.n.n.K.P.m.m.C.S.].Z.V.a.                ",
"                                          V V N t y $ O O V A x S M m 8 i F F g n                                               ",
"                                        0 q 8 8 O O O O @ z z z z M M d N G a i 0                                               ",
"                                      q 0 i y 8 O O O @ o z z z z 9.C d h g i q e                                               ",
"                                      , q 7 O o o o o o + x 9.x x e C h d h d < q                                               ",
"                                      q o 7 , 7 8 9 q 7 7 n C C 9.u.9.g h d d d                                                 ",
"                                                          C h C G P G d y < e                                                   ",
"                                                            e e d h d d e e                                                     ",
"                                                                e e e d                                                         ",
"                                                                                                                                "
};
