/* XPM */
static char *_e58f508fc2d4979b15f61de852d3d1bNejzLVlV1tnlqA9q[] = {
/* columns rows colors chars-per-pixel */
"64 64 247 2 ",
"   c None",
".  c #3A0805",
"X  c #351509",
"o  c #391716",
"O  c #291411",
"+  c #382816",
"@  c #2E2619",
"#  c #2D2A29",
"$  c #362C29",
"%  c #373638",
"&  c #38322C",
"*  c #460405",
"=  c #4B0203",
"-  c #470907",
";  c #5C0203",
":  c #550408",
">  c #481204",
",  c #581508",
"<  c #461816",
"1  c #561616",
"2  c #580C12",
"3  c #630102",
"4  c #6C0203",
"5  c #680708",
"6  c #730302",
"7  c #7C0302",
"8  c #780809",
"9  c #771604",
"0  c #690C15",
"q  c #641317",
"w  c #720F13",
"e  c #4C2607",
"r  c #552D0A",
"t  c #5A340A",
"y  c #492719",
"u  c #572A17",
"i  c #5A3518",
"p  c #493718",
"a  c #772704",
"s  c #67371A",
"d  c #692F0F",
"f  c #482727",
"g  c #582C26",
"h  c #473529",
"j  c #593628",
"k  c #572D32",
"l  c #5D3334",
"z  c #583838",
"x  c #463133",
"c  c #653927",
"v  c #653936",
"b  c #722C2D",
"n  c #661A24",
"m  c #54421A",
"M  c #76481A",
"N  c #6E4E16",
"B  c #5A4A27",
"V  c #584636",
"C  c #585435",
"Z  c #494A32",
"A  c #634928",
"S  c #744926",
"D  c #68542A",
"F  c #775827",
"G  c #664A34",
"H  c #78493A",
"J  c #695737",
"K  c #765A35",
"L  c #78633A",
"P  c #78642F",
"I  c #5C3F41",
"U  c #6C3E40",
"Y  c #3A4043",
"T  c #574944",
"R  c #525151",
"E  c #694847",
"W  c #744846",
"Q  c #675647",
"!  c #765647",
"~  c #675A55",
"^  c #795657",
"/  c #786548",
"(  c #656357",
")  c #786B55",
"_  c #7C7259",
"`  c #6E6A45",
"'  c #696667",
"]  c #746968",
"[  c #797369",
"{  c #756D72",
"}  c #797679",
"|  c #6A726F",
" . c #566147",
".. c #37432A",
"X. c #820304",
"o. c #840609",
"O. c #841509",
"+. c #8D330D",
"@. c #8F4C16",
"#. c #916B16",
"$. c #8B532D",
"%. c #876538",
"&. c #96742E",
"*. c #A86C27",
"=. c #B1582B",
"-. c #88504F",
";. c #856A4A",
":. c #856A58",
">. c #86785A",
",. c #977857",
"<. c #92744E",
"1. c #A47554",
"2. c #876665",
"3. c #877A66",
"4. c #977967",
"5. c #867977",
"6. c #977172",
"7. c #AA746A",
"8. c #8F5F60",
"9. c #CD6D49",
"0. c #79837B",
"q. c #CA903C",
"w. c #AF8C4F",
"e. c #978769",
"r. c #8E8679",
"t. c #978B76",
"y. c #9B9277",
"u. c #868165",
"i. c #A69475",
"p. c #B5916B",
"a. c #A48F63",
"s. c #C49A4C",
"d. c #CDAA58",
"f. c #D58D6C",
"g. c #D7BB7B",
"h. c #D1B06A",
"j. c #ECA76A",
"k. c #F3CB5D",
"l. c #DEC17B",
"z. c #EBC767",
"x. c #F4CE69",
"c. c #F7D36B",
"v. c #F6CB76",
"b. c #F8D576",
"n. c #E8C373",
"m. c #AA8131",
"M. c #787C82",
"N. c #847D81",
"B. c #897E85",
"V. c #9A7F83",
"C. c #7E8584",
"Z. c #8B8C85",
"A. c #8C858A",
"S. c #8B8B8C",
"D. c #868586",
"F. c #948789",
"G. c #95938B",
"H. c #948D92",
"J. c #949393",
"K. c #9C9B9C",
"L. c #979698",
"P. c #8D928E",
"I. c #A79A8A",
"U. c #A39998",
"Y. c #B08D88",
"T. c #99A39D",
"R. c #96A68E",
"E. c #A7A59A",
"W. c #B4A890",
"Q. c #9B9DA1",
"!. c #A49DA2",
"~. c #9DA4A5",
"^. c #A4A3A5",
"/. c #ABABAD",
"(. c #A8A7A8",
"). c #B6ACA9",
"_. c #B7B4AA",
"`. c #AEACB1",
"'. c #B3ADB2",
"]. c #AEB4B2",
"[. c #B4B4B4",
"{. c #BABAB5",
"}. c #B5B5BA",
"|. c #BBB6BB",
" X c #BBBBBC",
".X c #B7B9B7",
"XX c #ACB1AC",
"oX c #C99595",
"OX c #CFB28F",
"+X c #C5B8A8",
"@X c #C2BDBD",
"#X c #CDBBB5",
"$X c #CCADA8",
"%X c #BDC1BD",
"&X c #E6CA89",
"*X c #F7CB86",
"=X c #FAD888",
"-X c #F9CD98",
";X c #FBD897",
":X c #E6CC99",
">X c #FAE19A",
",X c #FDE089",
"<X c #D8C9AA",
"1X c #C4C1BD",
"2X c #CAC7BE",
"3X c #D5C9B9",
"4X c #D3CBAC",
"5X c #EADAA7",
"6X c #F9DAA6",
"7X c #E4D6B6",
"8X c #F2D4AF",
"9X c #FBE6AA",
"0X c #FBE8B8",
"qX c #FEF2BB",
"wX c #DBCE9C",
"eX c #BBBAC2",
"rX c #C1BEC2",
"tX c #BEC3C4",
"yX c #C3C3C4",
"uX c #C9C7C9",
"iX c #D6CAC8",
"pX c #D7D3C8",
"aX c #CAC9D3",
"sX c #D5D3D2",
"dX c #DAD8D9",
"fX c #CED0D0",
"gX c #E4C9C9",
"hX c #E6DBD8",
"jX c #ECD9CF",
"kX c #F8E8CA",
"lX c #FEF2CA",
"zX c #E9E5D9",
"xX c #F5E8DA",
"cX c #F4EED4",
"vX c #DBDCE4",
"bX c #E9DCE3",
"nX c #DBE4E6",
"mX c #EDEDEA",
"MX c #E7E6E5",
"NX c #F7E9E7",
"BX c #EDF4EA",
"VX c #F8F3E7",
"CX c #EAEEF3",
"ZX c #F8EEF5",
"AX c #F7F8F7",
"SX c #ECF4F7",
"DX c #DDEBD9",
/* pixels */
"                                                                                                                                ",
"                                                                                                                                ",
"                                                                D D                                                             ",
"                m                                             e.e.F D                                         N                 ",
"            F >.K                                           B 7XkX_ C                                           ;.A             ",
"            J <XD K                                       B i.VXcX3XC                                           wXL             ",
"          B W.VXJ J                                   B C  .E.W.E.y._ B                                       B cXW.            ",
"        D ! cXVX_ D                             Q >.>.u.y.G.K.L.J.D.Z.u.u.>.) J                             D / cXcX`           ",
"        m OXVXAXy.D                         D ,.I.)._.).[.}.}.}.XX^./.E.^.E.I.r._ J                         B i.VXcX4XB         ",
"        J VXAXAXpXu.J F               %.B y.VXAXzX[.[.}..X|.}.|.}.`./././.(.~.E.E.I.>.J                   J 4.pXAXAXxXL         ",
"        u.BXBXSXBXpX>.A K K           m e.pXAXVXsX[.[.[.}..X{. X[.].`.`././.^.!.K.I.r.>.D             P J _ iXNXAXVXcXu.        ",
"        y.zXBXCXAXBXjXI.) J J G V J V jXcX1X2X[.[.`..X X.X X X{. X[.[.[.`./.(.^.E.T.G.3.3.G C G   D Q / y.hXZXAXAXxXmXe.        ",
"        e.zXMXCXAXAXBXzXpX+XI.G.U.] ] )._.[./.[.[.[._.{.{.%X%X%X{..X{.).'.`./.^.~.~.Q.A.} ( R I.I.I._.3XzXSXAXAXmXnXcXe.        ",
"        ;.pXnXnXSXSXAXAXBXBXMXMXMX| D.H.K./.XX(.].[.{.{.{.%X%X@X X{.{.[.).`./.(.^.~.Q.C.D.} ' aXmXmXBXAXAXAXAXmXdXzX4X>.        ",
"        J _.dXnXnXnXCXSXAXAXAXAXtX| S.J.L.(.].XX_.[.[.{. X X%X%X1X X{.{.[.`./.(.(.Q.L.C.C.M.' Q.AXAXAXAXAXCXvXhXMXpX_.J         ",
"        m i.{.aXvXvXvXdXDXMXBXmXr.D.J.J.J.K.(./.].[.[..X X X X X X X{.[.).[.).(.!.L.S.M.M.} | M.vXSXMXnXdXvXdXMXpX+Xi.m         ",
"          B I._.fXhXdXdXsXsXaX(.| Z.Z.P.P.J.U.^./.'.[.}.}.|. XeX|.|.}.}.'.).(.K.H.A.N.N.N.{ | ' S.sXfXdXsXDXpXpX+XI.Z D         ",
"          K / I.+X1XuXsXdXaXaXD.} D.P.S.J.L.L.Q.Q.^./.`.'.}.}.}.}.'.`./.!.U.L.S.A.A.N.5.{ M.{ ' } aXsXfXfX2X1X_.I./ K           ",
"            D J R._._.tXeXeXaX| | C.P.Z.S.L.L.L.T.Q.!.!.!.^./.(.^.!.U.U.L.H.S.S.A.D.C.} 5.{ { R ' [.1X1X%X_._.E.K               ",
"              F B L y.W.).).(.' } r.Z.Z.S.H.L.L.P.L.K.K.~.T.~.T.T.L.L.L.J.H.P.D.D.0.0.} { | | ( ( W._._._.y.) C L               ",
"                        ;.,.[ Q { D.C.P.S.S.L.L.L.L.K.K.L.T.T.K.P.J.P.J.H.S.S.D.0.0.0.| { ' ' ~  ._ >._ C J J K %.              ",
"                          a.i.) { A.S.H.S.H.J.P.H.H.L.K.K.K.K.L.J.J.H.H.F.A.A.N.} r.} | { ' ' ~ ~ t.e.L C J K K                 ",
"                      l.&X9X<X>.[ A.H.C.C.S.P.P.H.U.H.F.L.U.L.L.F.A.A.A.B.B.B.N.N.M.} { ' ] ] ~ ( 4X_.0._ u.%.L                 ",
"                    l.9X9XqX7X[ } D.M.H.C.A.S.S.H.H.H.U.U.L.J.L.S.A.B.N.N.N.N.} M.} { } M.' ' ' ~ 2X_ u.y.i.<.F                 ",
"                  d.=X9XqXlX7X_ [ M.D.5.N.V.V.V.5.^ v ^ V.V.V.6.6.6.6.8.z k ^ 5.5.] { ' ' ' ' ' ' ( & C >.;.1.&.                ",
"                  n.,X9X0XkXpX[ [ 5.Z.5.2.:.2.8.8.b 2 2 n b 2 -.b 1 b q q 2 v -.^ E E ' ' ' ' ~ % # Z Z >.OXOX                  ",
"                  h.,X>X0XqX7X2.:.6.6.8.g 2 q 5 8 8 8 8 8 w 8 4 8 8 8 o.o.7 8 w 0 0 1 U ^ ^ R # & Z ) 5X9X-Xj.@.                ",
"                *.s.=X=X;X6X8X1.b b n w w 8 7 X.X.X.X.o.X.8 7 o.6 o.X.X.o.X.8 8 0 0 n n k $ $ x V >.:X;X;Xv.q.+.@.              ",
"              +.+.*.j.*X-X;X8X$.5 9 w 8 8 7 X.7 X.7 7 X.X.o.8 o.o.X.7 7 w 3 5 , q q n 2 o f h c a.8X6X*Xv.j.=.+.+.a             ",
"            a a O.9 +.9.=.$.9 9 9 4 6 6 6 7 7 6 6 7 7 X.X.X.o.8 w 4 7.oXY.oXY.2.2.2.f < f l f , 5 b =.f.f.+.O.O.a a             ",
"              @.+.O.9 9 7 8 O.8 4 4 6 4 6 6 6 4 4 6 X.o.X.o.5 0 n oXxXNXxXNXhXzXF.) 5.z < f < 5 9 9 3 w a 8 9 9 +.@.            ",
"                +.9 4 4 8 5 5 8 4 3 4 4 4 4 4 4 6 6 8 7 6 w 0 -.gXNXhXiX[.'././.(.[.' 5.Q o . ; 4 4 5 5 3 4 9 a                 ",
"                  a , ; ; 5 3 3 5 5 3 3 3 3 3 4 6 6 4 6 w 5 -.gXNXhXuXtX|.`.[./.[.^.].[ 5.E < : 3 3 3 ; : 9 d                   ",
"                    > = * = = : = : : ; 3 3 3 3 4 0 5 2 1 Y.xXNXhX|.%XtX].}.'.|.`.rX.XBX).k < : : : : = * >                     ",
"                      s , - - = = : : ; 3 3 3 4 5 ; 5 1 oXbXVXsX|. XtX].XX[.|. X`.|.yXZXbXf * * = = = * > s                     ",
"                        s e > : * * : : ; ; ; : : 2 v $XNXNX%X%XyX/.}.[.XX X%XyX/.rX@XAXxXk . - * - * > ,                       ",
"                          $.S u - * * * - : : * o ^ rXxXzX2X].].}.!.rX'._..X.X%XtXeXsXZXNXl . * * 1 s F                         ",
"                        S %.OX7.c * 1 2 2 - * - W jXNXNX%XtX%XXX`.!.rXrXtX}.tXtXeXuXZXZXgXf . - > 1.w.$.                        ",
"            L %.i.OX7X5XwXwX8X-XOX1.> . * - b V.bXNXgX#XyX%X].}.'.rX@XeXeXrXtXuXCXZXbXY.o . X S p.:X:Xp.                        ",
"            ;.I.kXcX<XW.5X0X9X6X6X-Xp.e < f #XNXNXrXrXrXtX.XXX X|.sXrXeXvXiXfXBXZXhX2.X . 1 f.:X9X0X0X5Xg.                      ",
"            I.7XdXt.Q <XlXqX0X6X6X;Xw.J / 3XmXzXuXrXuXeX|. X|..X|.@XrX@XyXDXBXBXW.Z O X p %.OX9X9X0X0XqX9Xw.                    ",
"          ;.4XxXI.Q 2.cXlX0X0X0X6X6Xp.>.3XzXdXyXrXyX|.}. XtXyXyXuXuXyXuXnXBXDXG...@ Z + D m.>X9X0XqX0XlXlXOX                    ",
"          e.1XxXT z 4.xXcXkX0X0X0X7XOXkXcXdXtX.X1X X.X XyXyXuXiXuX XsXmXBXDXT.'  .Z C Z B u.5X6X0XkXkXkXlXOX                    ",
"        %.W.3X3XG z G ! :.4.,.4.:.I.zXVXpX1X XtX[.{.%X1XuXuXiXuXrXMXBXAXH.) ~ E  .J Q J y r M -.<.4.4.:./ m                     ",
"        / OXiXW.V W 6.j c j ! h z iXVXzX.X XeX}.|.eXyXtXyXfXeXiXZXZXbXV.W E E E E G G y H 1.s v v -.l j g :.1.                  ",
"        ;.$XgXI.B ! $XoXW l z I 5.NXMX1X[.}.eXeXaXyXtXfXtX}.ZXAXZX).R k k k x f f f X r H OXp.v v l v l 7.OXa.                  ",
"        / $XhXI.V j H W c j z I $XbXhX(.[.{.eXuXuXuXuX%XuXmXZXpXA.% & & $ x x f f + e B S D S s c A j c D K                     ",
"        ) $XiX).h G ,.$.s s u 2.iXMXuXE.@X@X@XiXuX2X%XpXBXAX{.R $ # # # # # # % % & p D S &.F s d t r t M <.1.                  ",
"        ! I.3X#XG y.6X6X6X-X8X$X3XvX XaXtXeXeX'.uXbXCXAXuX~ @ x $ # O # % Y R Y C ..+ P g.;X=X*X*Xv.-X;X9X>Xg.                  ",
"        ;.e.$XjX/ e.9X;X=X;X:X<XgXdXyX}.tXfXbXCXSXSXCXfXZ O h G V T O # % % R R  .m m a.>X=Xv.z.b.v.=X=X>X>Xl.                  ",
"          L i.3XW.i.6Xb.v.b.&X5X0XzXVXVXZXAXZXSXdX(.R % $ X i A j l o @ % % T T Z p N d.=Xb.b.k.k.x.c.b.b.,Xh.                  ",
"            <.I.3X:X9Xb.x.v.g.&X5X5X7X5X+XW.r.[ ( % # $ + i   s i A h # # # % x h + F &.j.b.b.k.k.x.x.b.b.b.h.                  ",
"              4.+X<X>Xz.z.b.z.=X&Xg.&XOXP L m X % % x @ p           K h # $ $ x + p F F q.b.c.k.c.k.c.c.z.b.d.                  ",
"                  h.&Xb.c.b.z.b.b.v.*Xw.F M B j V k j j i             p j x k T j B P @.&.v.x.z.c.c.b.c.z.,Xw.                  ",
"                    s.b.b.c.z.z.d.m.  @.M S u g g j j j r             t c l k v l s s M M #.m.q.k.z.c.c.v.s.                    ",
"                        #.            s K H H v v l j g i               e g I v g A -.H M t #.N #.  #.&.                        ",
"                                    e s c H U l v k g u i               i j k l v v H v s d M                                   ",
"                                    r c u j v v g v v g i             r i j l l v v i g 1 c                                     ",
"                                      S i c y g g v v c s             e u g k k u u u s                                         ",
"                                            i s g u u u r             e i g g g t t d S $.                                      ",
"                                              t r r r t                 s r s i t                                               ",
"                                                                                                                                ",
"                                                                                                                                ",
"                                                                                                                                "
};
