/* XPM */
static char *cebc7aba1d904ff6ca4fbb9c91449a17EZSItQWHX9063Yt9[] = {
/* columns rows colors chars-per-pixel */
"64 64 139 2 ",
"   c None",
".  c #050708",
"X  c #060808",
"o  c #0B0A09",
"O  c #120D0A",
"+  c #1A0F0B",
"@  c #0D110C",
"#  c #14110C",
"$  c #1B160D",
"%  c #13180F",
"&  c #181D10",
"*  c #25130D",
"=  c #2B160E",
"-  c #20190E",
";  c #2B180F",
":  c #32170F",
">  c #291F11",
",  c #361810",
"<  c #3C1A11",
"1  c #1C2312",
"2  c #2D2211",
"3  c #242B15",
"4  c #252E18",
"5  c #372814",
"6  c #3D2D15",
"7  c #2C3519",
"8  c #3A3017",
"9  c #323F1E",
"0  c #4A1F13",
"q  c #402012",
"w  c #4C2314",
"e  c #412F15",
"r  c #532515",
"t  c #542916",
"y  c #5F2D17",
"u  c #582F18",
"i  c #443116",
"p  c #4A3517",
"a  c #43361B",
"s  c #4D3719",
"d  c #4B381A",
"f  c #513618",
"g  c #543C1B",
"h  c #583E1B",
"j  c #602717",
"k  c #622B17",
"l  c #602C18",
"z  c #6D2C18",
"x  c #742E1A",
"c  c #64361A",
"v  c #6B331A",
"b  c #66381B",
"n  c #6B381B",
"m  c #75361A",
"M  c #7C311B",
"N  c #7C3A1B",
"B  c #36411C",
"V  c #38441D",
"C  c #374521",
"Z  c #3D4C23",
"A  c #58401D",
"S  c #62451D",
"D  c #68421D",
"F  c #6A4A1F",
"G  c #72481F",
"H  c #465626",
"J  c #465928",
"K  c #4B5E2B",
"L  c #634921",
"P  c #694A20",
"I  c #744A20",
"U  c #695224",
"Y  c #6F5928",
"T  c #755222",
"R  c #795422",
"E  c #566C30",
"W  c #586C30",
"Q  c #5A7132",
"!  c #83341D",
"~  c #8E371E",
"^  c #823C1D",
"/  c #8D391E",
"(  c #963A1E",
")  c #983B1E",
"_  c #963A20",
"`  c #9D3C21",
"'  c #A33F21",
"]  c #8D401F",
"[  c #8F4620",
"{  c #974520",
"}  c #9D4721",
"|  c #845C24",
" . c #895E26",
".. c #925424",
"X. c #A74022",
"o. c #AA4122",
"O. c #A44B22",
"+. c #AC4E24",
"@. c #B44423",
"#. c #B94624",
"$. c #BD4825",
"%. c #AF5225",
"&. c #B45425",
"*. c #BB5426",
"=. c #946227",
"-. c #95652A",
";. c #95682B",
":. c #9A6B2B",
">. c #A4712D",
",. c #AB752D",
"<. c #B1792E",
"1. c #AF7930",
"2. c #B07931",
"3. c #C34A25",
"4. c #CE4E26",
"5. c #D24F27",
"6. c #C05627",
"7. c #CA5A26",
"8. c #D45027",
"9. c #E96723",
"0. c #EC6823",
"q. c #BD8233",
"w. c #AF903B",
"e. c #C48633",
"r. c #C78833",
"t. c #CC8B34",
"y. c #D59136",
"u. c #DA9437",
"i. c #D7943A",
"p. c #DE9739",
"a. c #DE983C",
"s. c #E49B3B",
"d. c #E89F3D",
"f. c #EDA33E",
"g. c #F0A43F",
"h. c #EFA440",
"j. c #F2A640",
"k. c #F6A941",
"l. c #FBAC43",
/* pixels */
"                                                                                                                                ",
"                                                                                                                                ",
"                                                                                                                                ",
"                                                                                                                                ",
"                                                                                                                                ",
"                                                                                                                                ",
"                                                                                                                                ",
"                                                                                                                                ",
"                                                                        . .                                                     ",
"                                                                    . . . . .                                                   ",
"                                                                  . . o : q o .                                                 ",
"                                                                . . * ' 8.8.) .                                                 ",
"                                                              . . : $.5.5.8.5.+                                                 ",
"                                                              . o ' 5.5.8.8.5.w X                                               ",
"                                                      . . . . . z 5.4.3.5.5.5.) .                                               ",
"                                                      . o . . < @.#.@.@.@.3.5.3.o                                               ",
"                                                        , , o ~ ' #.4.8.5.@.@.5.0                                               ",
"                                                        + X.w ` o.$.3.8.8.5.! 3.M .                                             ",
"                                                        . ~ $.` ` ` ` X.3.5.' < $.o                                             ",
"                                                        . j o._ ` ` ` ` ' o.! f / :                                             ",
"                                                          , ` M 0 _ ` ` ` w =.y.D k                                             ",
"                                                          O _ ` x > n k G r.s.f.t.w .                                           ",
"                                                          . M ` ` b u.u.p.g.l.l.l.I .                                           ",
"                                                          . r ` ` c u.d.l.l.l.l.l.P .                                           ",
"                                                          . = ` ` u d.l.l.l.l.l.l.P                                             ",
"                                                            o _ ` x :.l.l.d.s.s.f.P                                             ",
"                                                            . t v '  .l.j.,.2.:.d.F                                             ",
"                                                            . f ,.' -.l.g.F  .s f.P                                             ",
"                                                            . R f./ :.l.j.D | i f.P                                             ",
"                                                            .  .h.{ >.l.l.:.1. .l.P                                             ",
"                                                              F s...1.l.l.k.j.f.l.P                                             ",
"                                                              i y.=.1.l.l.l.l.l.l.P                                             ",
"                                                              . p 1.,.s.s.s.s.s.s.h                                             ",
"                                                              . 2 r.q.u.u.u.u.u.t.$                                             ",
"                                                                X S y.u.u.u.u.u.T .                                             ",
"                                                                . . e e.u.u.u.e.# X                                             ",
"                                                                X X X $ ,.u.u.S X                                               ",
"                                                                % @ @ X $ R >.O                                                 ",
"                                                              . V C 1 1 X X $ .                                                 ",
"                                                              @ K J 1 B 7 o . .                                                 ",
"                                                              1 W Z 4 B 9 7 & 6 o                                               ",
"                                                              d w.B Z B B B 3 ;.P X                                             ",
"                                                              T l.g E E H C 4 :.j.5 .                                           ",
"                                                              :.l.8 Q Q Q Q C | j.i.>                                           ",
"                                                              q.k.3 Q Q Q Q Z 8 y.k.e.o                                         ",
"                                                            X a.d.4 Q Q Q Q Z . | d.f.i X                                       ",
"                                                            # l.q.a Y U L L A . X :.s.2 X                                       ",
"                                                            5 l.:.N &.&.&.O.%.o . > >.o                                         ",
"                                                            h l.:.O.6.6.*.v *.=   . O X                                         ",
"                                                            f l.g %.6.*.^ r 6.w     X                                           ",
"                                                            o s o ] $.+.+ X %.N .                                               ",
"                                                            . . X l 5 ; . X ^ %.+ +                                             ",
"                                                              .   o k N . . w 6.O.&.+                                           ",
"                                                                  ; 6.0.r   * *.7.9.m                                           ",
"                                                                  t } O.m . : { { { ^                                           ",
"                                                            X X X o O O O . X o o o o .                                         ",
"                                                                                                                                ",
"                                                                                                                                ",
"                                                                                                                                ",
"                                                                                                                                ",
"                                                                                                                                ",
"                                                                                                                                ",
"                                                                                                                                ",
"                                                                                                                                "
};
