/* XPM */
static char *_6f8be61356f4e35eaeab80d3a6c15d8ZxDCZMESxfwIR7K0[] = {
/* columns rows colors chars-per-pixel */
"64 64 247 2 ",
"   c None",
".  c #341709",
"X  c #3B2818",
"o  c #3A2C08",
"O  c #3B2A28",
"+  c #3C3432",
"@  c #480905",
"#  c #560803",
"$  c #481406",
"%  c #58150F",
"&  c #670504",
"*  c #780807",
"=  c #781507",
"-  c #761715",
";  c #671710",
":  c #582A1A",
">  c #59351A",
",  c #4E2E11",
"<  c #62371B",
"1  c #6A2A0F",
"2  c #472B2A",
"3  c #582D24",
"4  c #48342A",
"5  c #5A3626",
"6  c #452C35",
"7  c #483736",
"8  c #5A3A36",
"9  c #512D36",
"0  c #612F2A",
"q  c #663727",
"w  c #673A38",
"e  c #753A38",
"r  c #752C26",
"t  c #644A1A",
"y  c #4B422D",
"u  c #5B4828",
"i  c #594738",
"p  c #4D463A",
"a  c #654828",
"s  c #74472A",
"d  c #6A552C",
"f  c #685428",
"g  c #765A2B",
"h  c #674738",
"j  c #77473A",
"k  c #695735",
"l  c #755C33",
"z  c #775A37",
"x  c #7A6239",
"c  c #776030",
"v  c #583C44",
"b  c #4B3642",
"n  c #6D3B42",
"m  c #4B4947",
"M  c #564846",
"N  c #525452",
"B  c #684846",
"V  c #764845",
"C  c #695943",
"Z  c #705550",
"A  c #776548",
"S  c #796957",
"D  c #766A52",
"F  c #676566",
"G  c #77696D",
"H  c #797778",
"J  c #736E6D",
"K  c #645B62",
"L  c #8D0403",
"P  c #870906",
"I  c #930302",
"U  c #9B0302",
"Y  c #9C0B03",
"T  c #980709",
"R  c #881308",
"E  c #981306",
"W  c #881516",
"Q  c #991817",
"!  c #920C13",
"~  c #A40304",
"^  c #AC0303",
"/  c #A40B0B",
"(  c #AC0B0B",
")  c #A70708",
"_  c #B30303",
"`  c #B80708",
"'  c #A81606",
"]  c #B5140A",
"[  c #A60C15",
"{  c #B60C13",
"}  c #A61518",
"|  c #B61613",
" . c #8D2C10",
".. c #A62708",
"X. c #B42F14",
"o. c #8D312D",
"O. c #B2312A",
"+. c #AB1E22",
"@. c #C60905",
"#. c #CA160E",
"$. c #CC261C",
"%. c #D12F25",
"&. c #9A461A",
"*. c #B54317",
"=. c #92502C",
"-. c #AE5030",
";. c #866737",
":. c #8F6F2E",
">. c #A86F2D",
",. c #A57A1A",
"<. c #CB5030",
"1. c #CC6939",
"2. c #F97F3D",
"3. c #855447",
"4. c #8A4E49",
"5. c #AB4F4C",
"6. c #866B45",
"7. c #846856",
"8. c #877559",
"9. c #957855",
"0. c #8F714B",
"q. c #AD7047",
"w. c #856C66",
"e. c #877866",
"r. c #867A79",
"t. c #977A79",
"y. c #957268",
"u. c #B0726D",
"i. c #985A60",
"p. c #CB7056",
"a. c #D07771",
"s. c #D8674F",
"d. c #D03D43",
"f. c #7C847D",
"g. c #AE8936",
"h. c #FA863F",
"j. c #9B8556",
"k. c #AE9352",
"l. c #978469",
"z. c #968A78",
"x. c #8B8679",
"c. c #A78A68",
"v. c #A68A78",
"b. c #A8967C",
"n. c #B79777",
"m. c #B69073",
"M. c #B3A276",
"N. c #B3A25A",
"B. c #CF8556",
"V. c #FD9053",
"C. c #D5B154",
"Z. c #E1BB59",
"A. c #D0976F",
"S. c #F19B6F",
"D. c #D0AE74",
"F. c #EBB16E",
"G. c #EBC669",
"H. c #F8D678",
"J. c #F0CB74",
"K. c #E6CD75",
"L. c #7E7B83",
"P. c #827E83",
"I. c #7B8484",
"U. c #888889",
"Y. c #948B8B",
"T. c #97948C",
"R. c #918E95",
"E. c #939393",
"W. c #9C9C9C",
"Q. c #979898",
"!. c #8D9090",
"~. c #A89B87",
"^. c #A59697",
"/. c #B59894",
"(. c #B18F88",
"). c #9EA39A",
"_. c #B8A889",
"`. c #A9A299",
"'. c #B6A99A",
"]. c #B2AB93",
"[. c #9D9CA4",
"{. c #A39CA2",
"}. c #A4A3A3",
"|. c #ACACAC",
" X c #A7A8A6",
".X c #B6ABA7",
"XX c #B7B3AA",
"oX c #ADACB1",
"OX c #B5AEB3",
"+X c #B3B3B3",
"@X c #BABCBC",
"#X c #B7B7B7",
"$X c #ADB4AD",
"%X c #9EA0AB",
"&X c #CE968F",
"*X c #ED8E88",
"=X c #C3B498",
"-X c #CCAE8D",
";X c #EEAF91",
":X c #C8B7A8",
">X c #C4B9B7",
",X c #D5B3AD",
"<X c #F1B9AC",
"1X c #B5C0BC",
"2X c #DCC793",
"3X c #E8CB88",
"4X c #F9D987",
"5X c #F7D997",
"6X c #F2CD95",
"7X c #FDE499",
"8X c #FEE68B",
"9X c #C9C2B8",
"0X c #D4C6BA",
"qX c #DCD4B8",
"wX c #D4C6A8",
"eX c #FADAA9",
"rX c #FAD9B4",
"tX c #F2CDAF",
"yX c #FCE7A7",
"uX c #FCE9B7",
"iX c #F8F0B7",
"pX c #BEBEC1",
"aX c #DCBFC1",
"sX c #BDC1C0",
"dX c #C3C3C3",
"fX c #CBC9C9",
"gX c #D4CBC8",
"hX c #D7D3CA",
"jX c #D4D3D4",
"kX c #D9D8D7",
"lX c #CECFD1",
"zX c #FBCCC6",
"xX c #E7D7CD",
"cX c #E6D9D7",
"vX c #F5D9D8",
"bX c #E4C7C6",
"nX c #D8E2DC",
"mX c #EAE5DB",
"MX c #F7E8D9",
"NX c #F5E9CA",
"BX c #DDDEE4",
"VX c #EBDBE3",
"CX c #E8E6E5",
"ZX c #F5EAE6",
"AX c #F9F6EB",
"SX c #F8F8F6",
"DX c #EBF0EF",
/* pixels */
"                                                            ;.t                                                                 ",
"                                                          g t 0.6.                                                              ",
"              t                                           d h qX=Xf                                           , f               ",
"            f g t                                         k ~.AXmX_.u                                         f f g             ",
"          a M._.d                                     ;.k J SXSXAXhXS k                                       6.M.8.d           ",
"        d l NX_.f                                     f k 9XSXDXDXnX].k d                                     k qXwXf           ",
"        k =XAXXXk c                         c k u k D ].Y.ZXSXSXCXnXlXx.'.8.u d c                           d A qXAXl.k         ",
"      d 7.mXAXqXk l                     d f A 8.z.J XX:XT.:XjXBXfX$X`.x.9X^.D l.D z f g                     k e.MXAXwXA         ",
"      x _.ZXSXCXz.u l                 f l ~.qXmXdXr.}.VXgXOX#XOXoX X$XsXlXR.H {.W.z.S z f                 d k :XAXSXmXS         ",
"      D 0XDXSXSXhXC u ;.            k C ~.AXSXDXlX{.r.U.OXBXCXCXBXDXjX%XL.J [.%X%XQ.T.e.k u               u e.ZXSXAXDXz.k       ",
"      j.xXDXSXSXAXqXb.k     l z k y b.hXhXjXfXpX#X|.pXoX{.R.U.I.H U.E.[.|.+X X|.[.).Q.x.e.A h A l A a u S :XcXSXSXSXmX].        ",
"      D xXmXDXSXSXAXNXqXb.l.D S S C `.fX@X X+X+XOX#X#X#X#XdXsX9XdX@X+X+X$X X}.).`.).Q.x.x.J C S S 8.z..XxXZXSXSXAXZXZX~.        ",
"      D >XCXCXCXSXSXSXDXCXCXCXhXE.H !.Q.}.oXOX+XoX#X#X1X@X@X@XsXsX@X#X+X|. X|. X).).).U.H H F #XVXcXAXDXDXSXSXDXCXCXhXz.        ",
"      k ~.hXCXBXCXDXSXSXSXSXSXdXJ U.E.R.{.oXoX+X+X#X#X#X@X@X@X1XsX@X@X+X|.$X X}.).).T.f.f.H J T.kXSXSXSXSXDXDXBXBXmX0X8.        ",
"      k 8.>XjXBXBXBXBXBXDXSXSX XF U.!.!.Q.}.|.#X$X$X#X#X@X@X@X@X@X#X#X+XOXoX X}.).Q.U.H x.H J F 1XAXAXDXnXnXkXBXkXxX`.k         ",
"        k ~.XXlXjXjXkXBXjXlXlXH P.U.!.R.R.[.W. XoX$X#X+XXX@X@X#X+X#X$X$XoXoX}.%XQ.U.H U.J H J K !.hXhXhXjXkXkXhXfXXXe.l         ",
"        d C '.9X9XkXlXjXjXlXlXK f.Y.R.U.E.Q.E.Q.{. X|.|.#X#X@X+XXX#X|. X X^.R.U.U.P.U.L.P.J J F J jXkXjXkXkXlX@X'.~.f x         ",
"          d k ~..XXX@XsXdXdX@XK {.#XW.R.R.E.E.Q.E.W.^.{.}.^.`.Q.Q.T.Q.T.Y.Y.R.U.U.P.L.L.R.OX+XJ N lXlXdX>X#X|.'.z.k 6.          ",
"            k z e.).].XX$X$X`.K {.BXjXfX#X).!.E.E.W.{.{.W.W.[.Q.T.U.!.!.U.R.U.P.P.R.|.@XdXfX@XF N +X#X+XXX'.b.8.z x             ",
"                f k k 8.b.b.e.F Q.lXlXnXCXmXdX!.Q.E.R.Q.{.[.[.E.!.U.U.!.I.L.U.U.#XjXgXpX#X@X|.K m z.~.z.S k f x ;.              ",
"                      g 6.6.A D T.fXjXVXmXbXvXZXcX>XY.P.[.[.R.%X!.U.I.I.I.$XgXcXbX,XaX,X>X>XR.N p S D c c c c                   ",
"                    k.D.tXuX].D z.>X/./.,X<Xu.5.&XvXvXgX!.I.[.I.L.L.E.+XmXbX-Xu.o.&X*XP.y.u.Y.M y wXiX2XN.:.                    ",
"                  D.6XuXiXNX=XC y.,X5.- W Q +.[ ! +.a.rXZXCX#XI.+XCXZXzX;X5.Q P } +.{ ! r u.v.i y qXiXiX7XK.k.                  ",
"                N.6XuXuXiXuX-Xh V u.5.Q T U { [ ( ) O.p.,XAXSXDXDXvXzXa.d.} T ~ ( ~ T ! o.5.4.8 u wXiXiX7X8XZ.                  ",
"                A.6XtX6XeX6X-Xh 3.4. .W T T / ' | ( / Q =.aXSXDXCXbXa.o./ ) ( | ) ~ P = - r 3.B h wXeXrX6X4XJ.p.                ",
"              >.>.B.p.&.p.F.-Xs 8.,Xu.o.= P R P Q ' ' I W 5.(.fXY.(.o.! L / Q E L P = - 4.u./.B h ;X;XA.-.-.1.&. .              ",
"              &.&.E Y ' E ..-.3.9.,XA.0.A.;XA.1. ...P P - &XvX0XxXzX5.P * =  .O.p.;XtXA.q.&Xc.6.0.-. .E U ~ I  .&.              ",
"            1  .*.X.#.| ( I  .>.A.F.B.-.s.d.<.O.X.%.O. .p.<XMXvXNXrX*X5.<.<.<.X.X.<.<.-.-.p.B.A.B...Y ' { { ( .. . .            ",
"            1 ; R Y ) ] $.] ..V.V.1.....$.%.#.@.#.%.%.} *X<XzX<XrX<X<Xp.$.$.$.#.@.#.$.$.$.$.X.2.S.1.....] _ / R = = 1           ",
"            &. . .P U ~ ( ] ..V.V.*.' ] @.@.@.@.@.@.` { d.s.*X*X*X*Xa.O.{ ` @.@.` @.@.` ] ] ' <.V.2...' ~ Y Y R  .&.            ",
"              &. .R P Y | | ] h.h.*.E Y ) ) ( ^ ` ^ _ { { [ } +.+.+./ ~ ^ _ @._ ^ _ ~ ~ ) Y E <.V.1...] Y I R  .&.              ",
"                 . . .R ! T P ..*.<.<.} ! T I U Y U U U ~ ) T T ) ) ~ ~ U I U ~ U T [ P } *.X.*.$.~ I ' E R  .                  ",
"                  &. .= * * P P R L } [ [ T ^ ~ U U I U I I I L L I L I I U I U U U T ! O.%.E L Y U L L =  .                    ",
"                =.< 1 ; & & & * L T [ [ { ` _ ` ^ U U U I L I I L I L I U ~ ~ ~ ~ ^ ~ / [ [ ) U T * & & & 1                     ",
"                  > @ $ % & & * P T T [ ) _ _ _ _ ` ^ ~ ~ ~ ~ ~ ~ ~ ~ ^ ) _ ^ ^ ^ _ _ ( ) ~ ~ U L & & # # $ >                   ",
"                  t > , @ @ # & * P T T ~ ) ^ ^ _ _ _ ^ ~ ~ ^ ( ^ ~ ^ ^ ^ ^ ^ ^ ^ ^ ~ ~ ) T L * & & # @ @ @ ,                   ",
"              g ;.l.y.A : . @ # # * ! ! Q ~ ~ ) { ( ( { ( ( / / ' ) ~ ) ^ ( ( _ ) ~ U U ! P W & # # # # $                       ",
"          c 9._.NXvXMXcX].v.7.% % # & W E I T T } T Y / ( [ / Y / / I ) ( ) ~ / Y I I L P * & # % % : r                         ",
"          9.wX/.M v G fXZX9X:X&X> % # & = & & W R T T / ) ~ ~ / / / ~ ~ ( / U T T L P * & & # @ % =.,XD.                        ",
"        0._.e.h v v v G mXmX'.,X-X9.> 1 $ # # ; = P ! } [ ) T [ E U U ( T / ! P * & & # @ @ : 0.m.,XtXrXD.j.                    ",
"      x l.v.h i B w B w .XZXhX_.=Xv.z z : , 3 , # # - W W P * W W W R ! Q W - * # @ # @ @ : 7.-XM.m.m.n.D.c.;.                  ",
"      0._.S M 7.7.q j w t.VX,Xy.5 s z d a k h M X @ ; r ; % r u.(.5.r - W - ; r @ @ % w : q j u t a a > q a s                   ",
"      l./.C xXZXvXt.h i G cX>Xe.5 , , > k C B B B i 9 : 9 (.xXmXZXVXbXi.; e e V n V Z n q 3 5 > 5 a 8 h (.,X9.                  ",
"      n.z.r.AXDXkX^.M 9 G cX,Xz.h c.n.d : q Z t.:Xw.V Z y.bXcXSXSXZXvX,Xj j V B Z B B n w v.n.3.V y.7.j Z n.-X                  ",
"      b.S `.kXcXdXP.v v r.vX0X9.a , l l , 5 G VX^.B v B G aXcXBXVXcXcX.Xv 9 9 6 b b + X 9.l.< q s a > q 5 : t ;.                ",
"    z _.G r.aX0X,Xw.v v (.xX:XM.D.k.:.:.> , B ^.^.Z 9 6 v ^.>XxXgXaX>Xw.3 2 9 b b b o 4 M.k.9.A.D.A.n.n.c.9.g                   ",
"    z (.w.Z (./.(.w w w >XbX=X-X6X3X8X3Xk.. X O M 7 O O 9 B P.&X/./.r.B 8 2 6 6 O 2 o A 2X5X5X5X5XeXyXrXuXuX2X                  ",
"    z b.z.n n n w w 3 Z jXgX~.qX5X4XH.4XD.o + m p + O 7 8 w e n V n n w 8 O 7 7 7 7 , N.7X4X4X4X5XeXyXuXNXuXiX3X                ",
"      c.-XB n n w v h ~.gX'.].yX7XH.G.C.g.. u N m m + y 8 w n 4.4.n V w 9 + b m m k o g.K.G.H.8X7XyXyXuXiXiXiX3X                ",
"        n.y.v v v B Y.qX].~.wXyX7XH.G.G.3Xj.y N N m + + 8 w e e e e e w 9 + m m m p 8.2X3XG.H.8X7X7XyXyXuXyXiXD.                ",
"        9.-Xt.t.P..XwX].M.2X5X7XH.H.H.H.4X-X, p m + + X 5 w e e e e e w 9 O + m m y j.6X4XJ.H.4X4X4X7XyXyXyXyXN.                ",
"        g 9.,X0X<X,X_.M.2X4X4XK.H.H.H.H.K.j.o y + + + . 2 5 5 q q e q 0 . O O + y X 9.3X4X4XH.H.H.J.4X4X4X7X4Xg.                ",
"            z z 0.9.N.K.H.J.G.Z.C.Z.G.C.    , > 7 2 O X 5 j         s j : X O 7 y X     C.F.G.C.Z.G.H.G.H.Z.C.                  ",
"                        ,.,.                u 5 9 9 8 a t               > i 8 2 4 5               ,.g.>.                        ",
"                                              0 w 8 3 , >               > 2 3 w q : d                                           ",
"                                            s q Z w : ,                 > 3 3 h h q ;.                                          ",
"                                            s e w w 0 :                 < 3 q w w e s                                           ",
"                                            j 4.w 0 : <                 1 > 0 0 w j ;.                                          ",
"                                        s 3.3.n w 0 q                     q 0 0 e j 3.s                                         ",
"                                        1 q 0 3 : 0 <                       < : 0 0 q > <                                       ",
"                                          s q q q                             q a <                                             ",
"                                                                                                                                ",
"                                                                                                                                ",
"                                                                                                                                "
};
