/* XPM */
static char *result[] = {
/* columns rows colors chars-per-pixel */
"64 64 224 2 ",
"   c #161515",
".  c #191616",
"X  c #161816",
"o  c #1B1916",
"O  c #161719",
"+  c #191619",
"@  c #16191B",
"#  c #1B1A1B",
"$  c #1F180F",
"%  c #231A15",
"&  c #221D1C",
"*  c #2D1E19",
"=  c #261816",
"-  c #371D19",
";  c #1E221F",
":  c #25211D",
">  c #2C231D",
",  c #2D2115",
"<  c #362A1C",
"1  c #37251B",
"2  c #161C23",
"3  c #1B1D22",
"4  c #151F29",
"5  c #211F22",
"6  c #1A2125",
"7  c #15222C",
"8  c #1B232C",
"9  c #182328",
"0  c #152531",
"q  c #1A2632",
"w  c #1C2A34",
"e  c #1D2C39",
"r  c #172B3A",
"t  c #1B313B",
"y  c #222224",
"u  c #2A2622",
"i  c #2C2824",
"p  c #25252A",
"a  c #26292D",
"s  c #2B2A2D",
"d  c #29272A",
"f  c #342D24",
"g  c #3A2C21",
"h  c #312A28",
"j  c #3C342A",
"k  c #393227",
"l  c #2D2D32",
"z  c #222E39",
"x  c #252C36",
"c  c #312D31",
"v  c #2F3136",
"b  c #22313C",
"n  c #2E3239",
"m  c #253036",
"M  c #323235",
"N  c #31343A",
"B  c #35393F",
"V  c #3C3A3D",
"C  c #38363B",
"Z  c #472615",
"A  c #4B341E",
"S  c #4A1E20",
"D  c #4C2524",
"F  c #542423",
"G  c #42392D",
"H  c #453525",
"J  c #453D34",
"K  c #543F27",
"L  c #662928",
"P  c #732A29",
"I  c #6E3835",
"U  c #4E1F1D",
"Y  c #4B4237",
"T  c #55483A",
"R  c #61513E",
"E  c #704D2C",
"W  c #1A364A",
"Q  c #273542",
"!  c #343640",
"~  c #353942",
"^  c #3B3D44",
"/  c #3C3E49",
"(  c #2F3E52",
")  c #413F43",
"_  c #3E424B",
"`  c #384047",
"'  c #32425B",
"]  c #33495A",
"[  c #2D4353",
"{  c #394A66",
"}  c #375569",
"|  c #3A5A72",
" . c #3E567D",
".. c #3C5275",
"X. c #3E4F73",
"o. c #444246",
"O. c #42434C",
"+. c #4C4A4B",
"@. c #4A4747",
"#. c #5D5143",
"$. c #444652",
"%. c #474956",
"&. c #484A57",
"*. c #474A58",
"=. c #494B59",
"-. c #514E55",
";. c #4D535B",
":. c #4B5257",
">. c #53535D",
",. c #595859",
"<. c #5A4D4C",
"1. c #675845",
"2. c #6F5252",
"3. c #74644E",
"4. c #7A684A",
"5. c #7B6A53",
"6. c #776850",
"7. c #60605F",
"8. c #545462",
"9. c #5B5B64",
"0. c #595A67",
"q. c #45577B",
"w. c #475061",
"e. c #605F66",
"r. c #5E666C",
"t. c #5A6372",
"y. c #646363",
"u. c #63626B",
"i. c #69686D",
"p. c #6B6A75",
"a. c #6D6D79",
"s. c #656873",
"d. c #716F79",
"f. c #68737A",
"g. c #747372",
"h. c #74737C",
"j. c #79797D",
"k. c #786866",
"l. c #90312F",
"z. c #A23837",
"x. c #A52E2F",
"c. c #865B35",
"v. c #9A6838",
"b. c #A46C38",
"n. c #8A524F",
"m. c #89765B",
"M. c #947E5E",
"N. c #BD605E",
"B. c #8E7B64",
"V. c #917D62",
"C. c #846C6C",
"Z. c #BE7471",
"A. c #C57472",
"S. c #96805F",
"D. c #9B8666",
"F. c #A58D6B",
"G. c #AA916D",
"H. c #AE9672",
"J. c #B39B75",
"K. c #B79C77",
"L. c #BDA37C",
"P. c #C8AC7E",
"I. c #D0AE7C",
"U. c #445A82",
"Y. c #56688B",
"T. c #53678A",
"R. c #6D7B87",
"E. c #797681",
"W. c #757882",
"Q. c #697996",
"!. c #76848B",
"~. c #7D8D96",
"^. c #7A8392",
"/. c #7C8BA5",
"(. c #6D82A2",
"). c #888785",
"_. c #83939D",
"`. c #989696",
"'. c #968E8C",
"]. c #BD8F8C",
"[. c #A1A19F",
"{. c #899DAA",
"}. c #8799A6",
"|. c #9D9EA0",
" X c #99A7BD",
".X c #ACACAB",
"XX c #A5A4A2",
"oX c #ABAEB1",
"OX c #B9B8B7",
"+X c #B2B0AE",
"@X c #CC9997",
"#X c #CAAD83",
"$X c #C5A982",
"%X c #CDB187",
"&X c #D7B98A",
"*X c #D1B6B4",
"=X c #E4B3B2",
"-X c #E2BF92",
";X c #DEC08F",
":X c #E4C593",
">X c #ECCA95",
",X c #ECCB99",
"<X c #F1CD97",
"1X c #F5D29C",
"2X c #FDD69C",
"3X c #FED89D",
"4X c #E0C38E",
"5X c #C3C1BD",
"6X c #FDD9A1",
"7X c #F8D6A1",
"8X c #EEC2BC",
"9X c #ADB5C4",
"0X c #BDC9D5",
"qX c #C6CDD6",
"wX c #DEDDDB",
"eX c #D4D4D5",
"rX c #D3D3D2",
"tX c #D5DAE1",
"yX c #E0DEE2",
"uX c #DCE4EA",
"iX c #E9EAEA",
"pX c #F2F3F3",
"aX c #E2C5C2",
"sX c None",
/* pixels */
"sXsXsXsXsXsXsXsXsXsXsXsXsXsXsXsXsXsXsXsXsXsXsXsXsX2 7 2 3 +   + 3 2 2 sXsXsXsXsXsXsXsXsXsXsXsXsXsXsXsXsXsXsXsXsXsXsXsXsXsXsXsXsX",
"sXsXsXsXsXsXsXsXsXsXsXsXsXsXsXsXsXsXsXsXw 6 # + O + # y d c c s d 5 . . 3 q sXsXsXsXsXsXsXsXsXsXsXsXsXsXsXsXsXsXsXsXsXsXsXsXsXsX",
"sXsXsXsXsXsXsXsXsXsXsXsXsXsXsXsXsXq 2 + . + 5 c ) -.9.e.s.a.d.h.d.i.>.M o O 2 sXsXsXsXsXsXsXsXsXsXsXsXsXsXsXsXsXsXsXsXsXsXsXsXsX",
"sXsXsXsXsXsXsXsXsXsXsXsXsXsX8 O . . + + . & 5 5 s v ~ $.&.&.&.=.=.0.i.E.s.d X # e sXsXsXsXsXsXsXsXsXsXsXsXsXsXsXsXsXsXsXsXsXsXsX",
"sXsXsXsXsXsXsXsXsXsXsXsX8 3 # O + 3 + . . . + + + + + + # d N ) $.%.*.=.0.i.o.; + 8 sXsXsXsXsXsXsXsXsXsXsXsXsXsXsXsXsXsXsXsXsXsX",
"sXsXsXsXsXsXsXsXsXsXsXsXsXsXsXsX4 3 + . . . + + o 3 & # + + o @ y B $.%.=.=.;.O.# + 8 @ 3 @ + . X O + @ # p sXsXsXsXsXsXsXsXsXsX",
"sXsXsXsXsXsXsXsXsXsXsXsXsX2 # O + 5 M ) -.8.e.e.e.e.e.8.-.&.O.) V l v B %.%.%.&.~ # + 5 M o.&.-.-.-.+.~ 3 + # 3 sXsXsXsXsXsXsXsX",
"sXsXsXsXsXsXsXsXsXsXsX2 . + 6 o.e.E.E.E.p.e.8.8.=.=.&.&.=.=.&.&.*.=.&.%.%.&.&.%.*.O.$.&.=.*.&.>.0.u.E.E.h.-.p + @ e sXsXsXsXsXsX",
"sXsXsXsXsXsXsXsXsX2   # ) u.d.s.0.8.=.=.=.=.=.=.=.%.=.%.&.=.=.%.*.=.%.&.=.&.=.&.%.%.=.=.&.*.&.&.&.=.&.w.0.h.h.-.# # e sXsXsXsXsX",
"sXsXsXsXsXsXsX7 + o c r.s.9.>.&.=.=.=.=.=.=.=.w.&.&.&.&.%.%.&.&.&.&.%.=.=.$.&.&.=.&.&.*.*.*.~ n a c ! ) $.=.r.h.O.o @ sXsXsXsXsX",
"sXsXsXsXsXsX2   # ,.0.&.&.=.*.*.) w.=.=.) =.=.) %.=.%.=.=.&.=.&.%.&.&.=.=.&.&.%.&.%.&.&.=.*.=.=.&.^ p @ @ p C =.i.V . 4 sXsXsXsX",
"sXsXsXsXsX2 X y =.=.=.%.$.O.O.=.8.e.0.8.8.=.=.=.%.&.&.=.%.&.%.&.&.=.&.%.%.&.=.=.=.=.&.%.&.&.*.&.=.&.=.) l # + # C ) . 3 sXsXsXsX",
"sXsXsXsX2 X y V ^ n s p d ^ u.a.s.8.=.=.=.&.&.&.=.$.=.=.=.=.=.=.=.%.%.=.&.&.=.=.&.$.&.&.&.&.&.&.*.*.=.&.%./ a X X . . 2 sXsXsXsX",
"sXsXsX2 X . # # + . 5 $.i.a.9.-.&.&.=.=.&.&.*.&.&.&.&.=.$.&.&.%.=.&.&.=.=.%.=.=.=.=.&.&.&.&.&.&.*.=.=.*.=.&.$.C # . # 2 sXsXsXsX",
"sXsXq . . . . . . c e.E.u.-.=.=.&.&.&.&.&.*.*.&.=.$./ ~ ~ %.=.=.%.&.=.*.$.$._ / / / / &.*.*.*.&.&.&.&.&.&.=.=.&.^ 5 + 2 sXsXsXsX",
"sX8 o @ q y . & &.E.a.8.=.&.&.&.&.&.&.&.&.&.$./ ! n N ! $.%.$./ ^ ! N N n l a p 5 3 p n ^ $.*.&.*.&.&.&.&.*.=.&.&.>.& X 9 sXsXsX",
"r 7 sXsXt @ o O.E.p.>.&.&.&.&.&.&.&.*.*.$./ ! n v v n ` ` B N N M M l y # . X X X . X ; v B $.=.&.&.) ) &.*.&.*.&.=.-.5 % sXsXsX",
"sXsXsXsX3 . -.E.p.=.*.=.&.&.&.&.&.&.*.~ n n n a v N v n N N M s 3 + + o .           X X # v n _ &.&.) ( / *.&.=.=.=.e.$.O 2 sXsX",
"sXsXsX2 O l h.p.=.*.&.&.&.&.&.&.%.) ~ ! N n s n N N M M v y # X @ c @.y.`.OX+XXX).,.+.s X # v N ) w.*.! M _ &.*.*.&.;.e.c O 8 sX",
"sXsXsXo 6 ,.d.>.&.=.$.&.&.&.&.&.) ! ! n N 5 c N N N v 6 X X # V g.`..X5XeXwXwXwXwXOXXX).d X # M ~ ) / ! n ^ $.=.=.0.w.e.,.+ 3 sX",
"sXsX8 . V h.8.=.&.&.&.&.*.%.=./ N N n n 5 l N N v ; # X     # V +.,.j.'.+XrXwXwXwXrX.X[.i.% o a ! / / n n N ) =.=.u.d.p.d.# @ x ",
"sXsX3 # 9.p.&.=.&.&.=.=.=.%.$.N n n M y p n M p X X X : .     . . . O . . . y V 7.).'.'.`.@.O # s ! N n c n ! &.&.0.E.E.h.c   2 ",
"sX7 O s u.8.$.%.*.&.=.*.&.O.N N N N y 3 l l 5 . o +.'.[.XX*XOX+X`.).y.@.y + O X   X O     X O o 5 n c n 5 n N &.&.8.E.E.E.) + 3 ",
"sX7 + ^ u.$.v O.&.&.*.%.%.^ N N M l + 5 d + O . ) y.,.+.@._ V M s y & X + O + .   X X       X X 3 n n l 3 c N &.=.=.E.9.i.+.@ O ",
"sX3 + +.=.d n %.=.&.&.&._ N M N l # + o O X X       $   . . # > g G Y T #.1.1.3.6.5.5.3.1.<.@.% X d l 5 @ l n $.=.&.E.-.& -.& O ",
"sX2 + ) l . C =.&.&.%.%.~ N n l y X O O + O # i J 3.m.m.D.H.L.L.L.$XP.#X#X#X%X%XL.F.m.5.#.#.T &   5 d + + l n $.&.&.h.>.+ 5 . O ",
"sX2 . 5 @ . ^ &.&.&.=.$.n n l 5 . . + # o o X : G 5.J.-X>X>X<X<X1X1X3X3X3X1X%X5.H 5 + . # u f & . X + . + d N $.&.&.a.>.+ . . + ",
"sX3 + @ + . ^ =.&.*.=.^ M n M 5 . . Y m.m.5.3.k % + 1 #X3X3X3X3X3X3X6X3X3Xm.: X = #.V.H.G.F.J.1.. + + X . a M $.&.&.p.>.+ . . O ",
"sX2 . O . . ^ &.&.&.*.! N N v . . k C.S.D.%X7X6X&Xm.1 4X3X3X3X3X3X3X3X3X3XD.Y H.1X2X6X,XK.V.V.#.. . h & + d n $.&.&.d.-.  . . O ",
"sX2 + 8 # + ! =.&.&.$.N n n 5 . o # # 2 6 O : H m.&X1X2X3X3X3X3X3X3X3X3X3X3X1XJ.#.g o 3 3 3 % % . J V.f . y N *.&.&.d.) . 3 # O ",
"sX2 @ sX4 o l =.&.&.$.! n n 3 . s |.q...X.{ ( M . > J.2X3X3X3X3X3X3X3X3X3X1XR $ 3 Q ( { X.q.sX,.# f B.u   y ! &.&.&.p.M . z e @ ",
"sX7 sXsX7 . 5 / &.&.*.N N l + d *XQ.U.] a ' ..Y.rX+ o :X3X3X3X3X3X3X3X3X3XF.% ,.tXT.T.Q z X.U.9X`.. j u . p / &.&.$.9.y X sXsXr ",
"sXW sXsXsX2 + ! *.=.%.N N u . g.eXT.0X.XO O {  .yXY $ G.2X6X2X3X3X3X3X3X3X< X +X9X}.pXM O p  ./.iX# & u + p $.*.$.=.O.o @ sXsXsX",
"sXsXsXsXsX8 . y $.*.*.~ N y . `.eXU.}.h.O O ( U.eX).O M.2X3X3X3X3X3X3X3X6X, o rX Xq.w.3 + 4 U./.pXj o # + M &.=.=.>.5 O 0 sXsXsX",
"sXsXsXsXsXsX@ + B %.%.~ N y . ).uXY.U.t.|.z ..q.iXi.. F.2X2X3X3X3X3X3X3X2Xg X 5XqXU.{ 7.p.(  .9XiXu + . + ! *.*.=.o.O 2 sXsXsXsX",
"sXsXsXsXsXsX8 . X _ &.` N # + s 5XuXU.Y. XU.U.wXeX# $ 4X2X2X6X3X3X3X3X3X3XD.X 7.pX}.q.(./. .Q.iX'.. 5 . o / %.*.^ & O w sXsXsXsX",
"sXsXsXsXsXsXsX8 X y ^ $.M # # X M [..XR.R.^.oXOXY # M.3X3X3X3X3X3X3X3X3X3X,XY # g.OX`.q.{ t.+Xg.& > f . # O.&._ 3 o q sXsXsXsXsX",
"sXsXsXsXsXsXsXsX@ # y O.B # + h f % 5 u M s & o & M.1X3X3X3X3X3X3X3X3X6X3X3X>XT o o X X X & # : j sX> X 5 O.o.3 . 2 sXsXsXsXsXsX",
"sXsXsXsXsXsXsXsXsX3 + y C 3 . u T m.H.F.D.D.G.K.&X2X3X3X3X3X2X<X<X2X3X3X3X3X3X>XP.H.F.D.F.F.J.#Xm.: X . y C 3 . 9 sXsXsXsXsXsXsX",
"sXsXsXsXsXsXsXsXsXsX4 . # o . + o * 5.$X2X3X3X2X3X2X3X3X3X3X>XI.I.%X3X3X3X3X3X3X3X3X3X2X6X:XD.g .   .   # o . 7 sXsXsXsXsXsXsXsX",
"sXsXsXsXsXsXsXsXsXsXsX7 o + O 2 8 2 o X o k T m.G.$X%X4X:X>X<X1X3X3X>X>X:X-X&X#XH.m.1.H > . . @ 2 m O . . 2 r sXsXsXsXsXsXsXsXsX",
"sXsXsXsXsXsXsXsXsXsXsXsX0 @ O 2 sXsX8 o o o X O . . % i k H j G k j G G G f & % o . + . . X z sXsXe X X 9 sXsXsXsXsXsXsXsXsXsXsX",
"sXsXsXsXsXsXsXsXsXsXsXsXsXsX2 8 sX7 . X + + + o - U S $ X o o O . . o . + 5 - S & O O o o X @ sXsX8 3 sXsXsXsXsXsXsXsXsXsXsXsXsX",
"sXsXsXsXsXsXsXsXsXsXsXsXsXsXsX0 6 + s 0.M . + + $ L l.l.].'.F F 2.k.C.P @XaXI - . O O # $.` X 2 Q 0 sXsXsXsXsXsXsXsXsXsXsXsXsXsX",
"sXsXsXsXsXsXsXsXsXsXsXsXsXsXsX9 X 6 !.!.# X . .   o - I *X=Xl.x.@X=X@Xl.C.<.& X .   . . ^ _.~ O 9 sXsXsXsXsXsXsXsXsXsXsXsXsXsXsX",
"sXsXsXsXsXsXsXsXsXsXsXsXsXsX7   y !.{.>.X 6 :.s   . . & @.2.F L 2.C.<.- %   % D S   .   y R.~.n   9 sXsXsXsXsXsXsXsXsXsXsXsXsXsX",
"sXsXsXsXsXsXsXsXsXsXsXsXsXt X @ r.{._.N . ` f.f.`       + + o . & . X X +   L P P = . . X :.{.f.3 X e sXsXsXsXsXsXsXsXsXsXsXsXsX",
"sXsXsXsXsXsXsXsXsXsXsXsXsX@ X `.uX0X!.y X s.~.!.R.r.N O     + M +.y.h.g.+   U l.l.F . . . n qXuXoXo 3 sXsXsXsXsXsXsXsXsXsXsXsXsX",
"sXsXsXsXsXsXsXsXsXsXsXsX0 + X u.qXpXW.o @ ~.{.{.}._.~.;.X     # o.)..XOXC O - z.x.P = o . 3 iXqXh.+ X q sXsXsXsXsXsXsXsXsXsXsXsX",
"sXsXsXsXsXsXsXsXsXsXsXsX4 +     X # ; X d {.{.{.{.{.{.f.O a b #   + 6 u.) O = Z.=X*X= @ . O O O X . X + t sXsXsXsXsXsXsXsXsXsXsX",
"sXsXsXsXsXsXsXsXsXsXsX@ X k 3.R J u X X %.{.{.{.{.{.{.f.O b | ] w y 2 + + + . A.A.n.D # . . + G 1.B.T % @ sXsXsXsXsXsXsXsXsXsXsX",
"sXsXsXsXsXsXsXsXsXsXq + f G.L.K.K.B.. O f.{.{.{.{.{.}.f.O b ` 6 6 p ~ 3 . + $ 2.=X=XJ + . . % V.J.P.#X1.X 8 sXsXsXsXsXsXsXsXsXsX",
"sXsXsXsXsXsXsXsXsXsX3 X 1.>X>X&X#X5.X # !.{.{.{.{.{.}.f.  m w f sX: ` 7 # X o n.N.z.F o X X . m.:X<X>X3.o 7 sXsXsXsXsXsXsXsXsXsX",
"sXsXsXsXsXsXsXsXsXsXw + & J.1X3X3X3.X d ~.{.{.{.{._._ `   m [ # y 8 ] 6 # X . L x.P - . .     4.3X6XD.% O e sXsXsXsXsXsXsXsXsXsX",
"sXsXsXsXsXsXsXsXsXsXsX7 X o R #X&XH X v {.{.{.{._.B X d   m | } } | } 6 . . X . X X @ M :.X o k 6.f . o r sXsXsXsXsXsXsXsXsXsXsX",
"sXsXsXsXsXsXsXsXsXsXsXsX8 @ X o % X X y ;.s.R.^._ X X X X m | | | | } 3 6 y y y y s ^ 0._ O . X . + 4 e sXsXsXsXsXsXsXsXsXsXsXsX",
"sXsXsXsXsXsXsXsXsXsXsXsXsX8 . . # o O O . . X O   $ o % O o 2 # O # # . . . . X X . X . . + @ 0 sXsXsXsXsXsXsXsXsXsXsXsXsXsXsXsX",
"sXsXsXsXsXsXsXsXsXsXsXsXsXsX8 # O 3 3 # + + A A A c.E < < % + @ 9 O o , 1 g 1 H A H , . 2 sXsXsXsXsXsXsXsXsXsXsXsXsXsXsXsXsXsXsX",
"sXsXsXsXsXsXsXsXsXsXsXsXsXsXsXsXsXsXsXsX# . H c.v.b.b.v.c.> o 0 sX2 . Y v.b.b.b.v.E , O 0 sXsXsXsXsXsXsXsXsXsXsXsXsXsXsXsXsXsXsX",
"sXsXsXsXsXsXsXsXsXsXsXsXsXsXsXsXsXsXsXsX7 O . = 1 1 < < : + o W sXq . o > g < < > % . @ sXsXsXsXsXsXsXsXsXsXsXsXsXsXsXsXsXsXsXsX",
"sXsXsXsXsXsXsXsXsXsXsXsXsXsXsXsXsXsXsXsX[ O . * - * * , o . 6 sXsXb . . * * , , * %   4 sXsXsXsXsXsXsXsXsXsXsXsXsXsXsXsXsXsXsXsX",
"sXsXsXsXsXsXsXsXsXsXsXsXsXsXsXsXsXsXsXsXsX9 . = Z Z Z - . @ Q sXsXsXq X X 1 Z Z Z o X b sXsXsXsXsXsXsXsXsXsXsXsXsXsXsXsXsXsXsXsX",
"sXsXsXsXsXsXsXsXsXsXsXsXsXsXsXsXsXsXsXsXsXb #   % & . . # e sXsXsXsXsX8 X X = = . . 2 sXsXsXsXsXsXsXsXsXsXsXsXsXsXsXsXsXsXsXsXsX",
"sXsXsXsXsXsXsXsXsXsXsXsXsXsXsXsXsXsXsXsXsXsXsXq 2 @ 3 w sXsXsXsXsXsXsXsXb q @ . 8 e sXsXsXsXsXsXsXsXsXsXsXsXsXsXsXsXsXsXsXsXsXsX"
};
