/* XPM */
static char *d9619af5ab524d6cdad47e6171274b83w2hAFhDGeiHnCGXj[] = {
/* columns rows colors chars-per-pixel */
"64 64 247 2 ",
"   c None",
".  c #171006",
"X  c #390804",
"o  c #35150A",
"O  c #391A19",
"+  c #291007",
"@  c #3C2617",
"#  c #2E2310",
"$  c #3E1E23",
"%  c #382924",
"&  c #332F2D",
"*  c #1D1D22",
"=  c #4A0302",
"-  c #460605",
";  c #530203",
":  c #5A0203",
">  c #580A05",
",  c #451A05",
"<  c #531C13",
"1  c #690604",
"2  c #790805",
"3  c #681605",
"4  c #7B1606",
"5  c #7A1415",
"6  c #681812",
"7  c #48260B",
"8  c #472817",
"9  c #473519",
"0  c #563819",
"q  c #562F11",
"w  c #782905",
"e  c #643619",
"r  c #6B3214",
"t  c #492A26",
"y  c #552B28",
"u  c #4C3628",
"i  c #57342A",
"p  c #443A36",
"a  c #593637",
"s  c #512F3C",
"d  c #683627",
"f  c #623B3C",
"g  c #683836",
"h  c #72332E",
"j  c #31722C",
"k  c #354F21",
"l  c #52421B",
"z  c #7A5A19",
"x  c #714D1C",
"c  c #5B4727",
"v  c #574637",
"b  c #4F4934",
"n  c #654C28",
"m  c #734629",
"M  c #6A542A",
"N  c #785729",
"B  c #66483A",
"V  c #685536",
"C  c #755A35",
"Z  c #78493A",
"A  c #4A6D32",
"S  c #796438",
"D  c #77602A",
"F  c #5D3B43",
"G  c #663A43",
"H  c #773D45",
"J  c #3C5D46",
"K  c #594844",
"L  c #4F514D",
"P  c #694746",
"I  c #794548",
"U  c #6B5B47",
"Y  c #675856",
"T  c #775A56",
"R  c #735448",
"E  c #53674E",
"W  c #786747",
"Q  c #766856",
"!  c #716850",
"~  c #6E5E65",
"^  c #696769",
"/  c #746C67",
"(  c #78736A",
")  c #787576",
"_  c #696571",
"`  c #5E5D64",
"'  c #880806",
"]  c #940302",
"[  c #9C0303",
"{  c #950C0B",
"}  c #990907",
"|  c #871706",
" . c #961309",
".. c #871817",
"X. c #971814",
"o. c #970F12",
"O. c #A30203",
"+. c #AB0304",
"@. c #A4050A",
"#. c #AB040A",
"$. c #A20B0B",
"%. c #AB0C0A",
"&. c #A80A05",
"*. c #B60606",
"=. c #A71509",
"-. c #A61517",
";. c #B11112",
":. c #85270B",
">. c #952718",
",. c #963817",
"<. c #892D17",
"1. c #AC2A13",
"2. c #91342D",
"3. c #B0372D",
"4. c #A81E21",
"5. c #C8100C",
"6. c #CC2F1B",
"7. c #CA3426",
"8. c #95411C",
"9. c #984925",
"0. c #8B522F",
"q. c #B2502E",
"w. c #836438",
"e. c #B36636",
"r. c #BA4B1B",
"t. c #D5412D",
"y. c #DF5532",
"u. c #AB3D40",
"i. c #845049",
"p. c #B0564D",
"a. c #88754A",
"s. c #89775B",
"d. c #907051",
"f. c #B16D54",
"g. c #857A65",
"h. c #857B76",
"j. c #947B76",
"k. c #91746A",
"l. c #AF766F",
"z. c #835D66",
"x. c #CE5A51",
"c. c #CC6D56",
"v. c #D2786E",
"b. c #46812E",
"n. c #738A59",
"m. c #B38B33",
"M. c #928753",
"N. c #B18F51",
"B. c #898579",
"V. c #958876",
"C. c #95896E",
"Z. c #A68C68",
"A. c #AA9572",
"S. c #AF9073",
"D. c #BCA275",
"F. c #F18E52",
"G. c #C8A859",
"H. c #CDA552",
"J. c #CF9875",
"K. c #E59379",
"L. c #D4A966",
"P. c #D7B668",
"I. c #D4B775",
"U. c #CFAC71",
"Y. c #EBB373",
"T. c #C19B4E",
"R. c #B3C07A",
"E. c #EDCA71",
"W. c #7C7C84",
"Q. c #A17D86",
"!. c #7E8282",
"~. c #888786",
"^. c #978A87",
"/. c #96948A",
"(. c #8B8B93",
"). c #9B9B9D",
"_. c #989698",
"`. c #919499",
"'. c #A48989",
"]. c #A79886",
"[. c #B39A89",
"{. c #A39C9D",
"}. c #A99B97",
"|. c #B69190",
" X c #98A29E",
".X c #B6A986",
"XX c #A7A59C",
"oX c #B7A699",
"OX c #AAA587",
"+X c #9A9AA3",
"@X c #A59CA3",
"#X c #9DA1A3",
"$X c #A4A4A4",
"%X c #A9A3A4",
"&X c #ACABAC",
"*X c #A7A7A9",
"=X c #B6A9A7",
"-X c #B9B2A7",
";X c #B5ADB2",
":X c #AEB3B5",
">X c #BABBBC",
",X c #B7B6B5",
"<X c #ADAFB0",
"1X c #D1978E",
"2X c #CFB094",
"3X c #EBAA8F",
"4X c #C4B5AA",
"5X c #C8B9B7",
"6X c #D1B5AA",
"7X c #F0B5AC",
"8X c #E29E96",
"9X c #BCC4A2",
"0X c #D9C990",
"qX c #F6D587",
"wX c #F0D195",
"eX c #D7C6A8",
"rX c #DAC7B5",
"tX c #CCC8B5",
"yX c #EBD0B2",
"uX c #FBE7BA",
"iX c #FCE5AA",
"pX c #FFE291",
"aX c #BCBCC3",
"sX c #CEBDC3",
"dX c #BEC2C0",
"fX c #C8C6C7",
"gX c #D6C9C9",
"hX c #DBD4C8",
"jX c #D9D8D8",
"kX c #D1CED2",
"lX c #E8CCC5",
"zX c #E6D6C8",
"xX c #FAD9C9",
"cX c #E7DAD7",
"vX c #FBDAD3",
"bX c #EBE6D9",
"nX c #F5E9D9",
"mX c #F6ECCF",
"MX c #DADDE3",
"NX c #E6DEE1",
"BX c #DFE1E5",
"VX c #ECECEB",
"CX c #E8E7E6",
"ZX c #FAF5EA",
"AX c #FCFBFB",
"SX c #F7F7F4",
"DX c #F0EEEE",
/* pixels */
"                                                                                                                                ",
"                                                                                                                                ",
"                                                                              M a.w.                  x                         ",
"                                    M l                                     C A..XC S               N 7                         ",
"                                  c a.n                                     S hXyXQ C w.              M a.                      ",
"                                M C.yXl                                   W .XZXbX4X! S               M.0XM                     ",
"                                S yXbXc                               M A A.bXZXVXzX].V C S           W mXA.c                   ",
"                              n OXZXnXc                         S D C b U hXZXDXCXkXzX! V M w.w.  S V Q bXrX(                   ",
"                              n nXZXZXQ n                     M V n s.}.}.CXSXAXCXjXkX}.}.B.B C S W V /.SXZX5XV                 ",
"                              g.DXAXSX4XV               D V W g.C.E XXfX~.<XfXkX>X&X_.~.tXXXQ XXV./ U jXSXSXzXa.                ",
"                            c [.VXAXSXBXC.V M         M U Q ( h.B.^ B.jXjX,X<X,X&X*X;XfXkX~.^ *X>XtX-XtXVXZXnXg.                ",
"                              oXVXVXAXSXbXk.M M V S V V ( ) ( W.!.`.(.n.$XjXCXCXCXVXkX%X^ ( ).,XgXSXSXfX:XDXCXC.                ",
"                            V .XDXVXSXSXSXbXyXXXV.! ^ ( ~.`.` ` W.(.#X*X*X~.!.!.n.Q.!.*X:XdXaX>XdXVXAXDX*XaXCXV.                ",
"                              OXjXCXBXSXSXSXVXbXjXbXbXjXMXkXfX^ W.`.).*X*X<X<X>XaXaX>X>X>XdXaXaX>X,XaXfXjX XtXB.                ",
"                              s.hXMXBXMXVXAXAXAXSXDXVXCXDXVXDX~.) !.(._. X<X:X,XaX:X>X>X>X>X>XaXaX:X>X:XMX$X/.Q S               ",
"                              W -XkXjXBXMXMXVXSXAXAXAXAXAXAXAX!.( ~./.`. X$X*X:X:XaXdXdXdXdXdXaX>X*X:X`.*X`.g.V D               ",
"                              M ].4XdXkXjXMXjXjXjXNXCXVXDXVXBX) ( ~.(.'._.).).%X*X&X<X;X;X<X<X*X*X).$X)._.).C.n                 ",
"                                T =X-X,XtXkXkXjXjXkXkXkXsXgX*X` h./.^._.).).XX%X%X=X&X&X*X$X@X*X$XXXXX_. X/.B.M                 ",
"                                  W A.>X:X:X:XdXfXgXtXgXkX;X_ _ (.(.(._.)._.+X%X%X%X%X$X$X).#X%X@X@X%X+X`.).B.U                 ",
"                  W s.V           n W V.XX-X-X,X;X,X,X>X&X_ _ Q.`.+X).`._.)._.). XXX).$X$X+X+X+X%X{.@X@X).)./.W                 ",
"                W V.V.g.n           M M ! /.4X-X,X-X-X X` W.(.Q.(.jXBX>X@X`.`. X X X X X+X+X`.`. X{.@X@X{.{.XXC.                ",
"              M V h.Q.j.V               D c c ! ( n.~ Y ) W.W.(.(.kXjXSXVXgX,X_./.).`.`._.+X`.+X).{.@X'._.;XjXzX                ",
"                M B U b @ M D             M M V Q C.C.Q / ^ ^ ) (.>XbXzXvXvXvX7X6X|.].'.^./.`.(.{.}.'.'.5XDXZXxXM               ",
"                  n c # 8 9 c             0 c U ! C.OXeXrX-XB.Q h.tXcXl.z.l.v.p.2.p.J.1XoX/.~.~.'.|.S.i.l.l.l.2XN               ",
"                      9 # q 9 x           , 7 Z A.uXmXuXmXzX[.Q / 4XcX1X2...o.4.-.o.>.f.7XcX5X).oX7Xp...>.5 p.1XN               ",
"                        # @ @ q m r 3 3 1 1 6 d.xXmXuXiXwXwXA.C T T G 2...' ] #.*.@.@.X.3.8XvXSXxXp.X.@.@.o...<.0.              ",
"                        V # 8 8 q > 1 4 5 5 ..1XyXuXiXqXwXwXD.C T '.Q.h ..' ] ;.;.5.;.$.4.u.8XvX8X..{ ;.;.' -.q.,.              ",
"                          0 7 , : 3 2 ' 2 ' ..f.v.p.9.F.3XwXJ.C Q oX7X1X2.2.>.X. .$.=.} o...f.sXv.5 ..o.' <.f.c...>.,.:.w       ",
"                          w.r 3 : 2 2 2 2 ' ' { =.=.]  .3.c.d.0.W [.7XyXl.1X3XK.9.w | ' ' 5 l.vXlX1Xv.x.q.2.v.x. .1.1.| :.9.    ",
"                            q > : 5 2 2 ' 2 X.7.O.#.%.[  .1.,.q.f.J.1XT.q.q.x.q.q.9.p.c.v.1X8XvXxXxXxX7Xx.t.t.6.6.t.1.=.1.1.,.8.",
"                          e < > : 1 1 2 2 o.X.1.6.6.6.5.*.}  .r.Y.F.r.r.6.6.6.t.7.7.t.-.p.7X7X7XlX7X7X3Xx.5.5.5.5.t.y.6.=. . . .",
"                          q - X - ; ; 1 1 2 ' ] ] [ #.#.*.&.&.=.F.F.r.=.5.5.5.5.5.;.#.#.@.7.x.v.K.v.v.7.*.5.5.*.&.6.y.&.} ' | :.",
"                          7 o X - - ; ; : 1 1 ' [ O.O.+.+.&.&.=.F.F.r. .*.*.*.+.%.+.+.+.+.} { X.4.X.o.$.#.#.+.O.} 7.7.X. .>.>.8.",
"                            7 X X X X - = ; 1 { [ ] @.4.;.&.&.3.F.e.w 4 | [ O.+.[ O.+.+.O. .} %.@.O.[ @.@.@.} { :.| | ,.,.9.    ",
"                            0.8 + X X X = ; > 1 2 { -.-.} $.] { c.K.K.p.>.o.[ O.+.O.+.+.#. .] ] $.$.@.[ } o. .| 9.9.:.w w r     ",
"                            S.R + X < g - = : > > 1 1 1 ' ] { @.}  .>.v.p.o.' { ] ] O.O.@. .] ] { o.o.o.{  .| ,.      9.        ",
"                          a.J.2X+ @ d.S.e > ; : : > ; ; : 2 2 o.[ @.$.X.X.%.$.$.#.O.O.O.O.] ] } $.%.;.;.$.' | 8.                ",
"                        D S W 6XP S.wXuX2Xn - = ; - - X = : 1 ' { O.O.#.#.#.+.#.#.+.#.O.O.[ O.&.%.%.#.#.@.| :.8.                ",
"                S S a.M.a.W U k.yXmXmXiXiXeXd.8 X X X - = = : 1 ' ' ] +.+.+.+.+.O.O.O.&.O.&.%.=.%.#.#.@.] | :.                  ",
"            M M.eXmXmXbXmXZXnX=X2XeXuXwX0X9XM.k + + X - ; ; ; : 1 2 ' O.O.O.O.O.O.O.O.O.+.%.%.@.O.+.O.] ' :.,.                  ",
"          a.D.rX6X^.h.g.j.}.rXnXrX2XeXyXR.n.b.b.k . # X - = - = : 1 2 ' ' ] ] ] [ [ O.+.&.O.O.[ O.[ } ' 4 8.9.                  ",
"          2XvX|.G s F a a s P =XZXxX2XeXn.j j j J k # o X X X , - = = > 3 ' ' o.[ O.O.O.&.$.} %.$. .] | :.0.                    ",
"        Z.lXS.G G a F F G a a s oXnXxXM.A k j j j E E # # o @ @ 8 o 8 B R i.p...o.' ] $.[ } o.} { | | w                         ",
"      a.eXS.f f I P Y T G G G a T gXnX}.l l M M L A b v v V V v v v v b T 5X8Xf.6 5 ' ' { ' ] { ' 2 :.                          ",
"      s.rXW a f T 4XgXgX^.G f g G =XNX4XC.i.h m P f B B B P P P z.U K K Q zXlXlXl.h 5 2 2 ' ' 2 4 :.,.                          ",
"      Z.rXv P f |.SXDXjXsXT y i f j.5XcXg.j.y < y y t v u s t Q.6XT P P G 4XlX5X7Xl.h 6 2...2 3 w                               ",
"      A.rXi g I 5XcXCXkXfXk.g B s z.tXgXQ u 8 % % % % % % % ` sX5XT F t t a i.S.k.P y i.3Xf.e.L.                                ",
"      Z.rXa f a |.hXkXsX5Xz.g g s k.gXrX.XU.d.u % p & p p & & W.=X^.K t y g P I G G f Z.3XI.L.E.L.N.                            ",
"      M.eXR B P R |.5X5XQ.g i a F @XsXeX2XpXpXD.% & L L F * * * & * # y h H H i.I g e N.I.P.G.L.P.G.                            ",
"      a.eXk.i P G T z.z.H f P G G =XvX[.I.qXqXw.l b K L L J ` !.!.p . $ G G H H h g d M.P.G.H.P.P.N.                            ",
"        S.6Xs.i a a G G G f g F Q.cXzXD.0XN.N.M.l l b L L L (.>X:XW.* $ s g G H g h 0 N.G.H.H.P.G.                              ",
"        w.0X6Xd.a P P F s i s T lXrXD.I.qXE.qXpXS 9 b L L E fXdX<XaX` . t F G g g e 0.P.P.P.H.P.G.                              ",
"        m a.D.eXOX! P P P j.[.yXeXZ.I.E.E.pXwXwXc @ u F & /.bXbXjXsX+X+ + O $ $ n N.2XP.P.Y.P.P.T.                              ",
"          C a.A.2X4X5X=X5XrXeX2XU.I.E.E.E.qXqXZ.@ u t p % n.OXtXcXcX_.$ $ $ $ O 0 a.N.G.G.L.L.T.                                ",
"                s.Z.A.[.D.Z.M.M.P.L.m.m.H.      0 i a v u B C S .XrXoXo o % t , 0 M D                                           ",
"                                              m a f G a 8 n N D x C Z 8 O t t 8 B C C                                           ",
"                                              0 y g H G d N z z z z z @ o O O O 8 8 8 e                                         ",
"                                              d q y g g d z 0.0.z z z # $ O $ O 8 y i 0 q                                       ",
"                                              q q d g d d m r x z N r o + + o o o 7 @ q 7                                       ",
"                                                e d d d h I i.i.m Z m 7 q q 0 8 7 , o , 7                                       ",
"                                                  e q y d H I Z m h m                                                           ",
"                                                    e r d h h d d e                                                             ",
"                                                        d e e e                                                                 ",
"                                                                                                                                "
};
