/* XPM */
static char *_ea853e392604210a516453969596fe8Znggpt5eRo97M2Q9[] = {
/* columns rows colors chars-per-pixel */
"64 64 226 2 ",
"   c #171616",
".  c #191615",
"X  c #171816",
"o  c #1B1916",
"O  c #161619",
"+  c #191619",
"@  c #16191C",
"#  c #1A1A1B",
"$  c #221A15",
"%  c #221D1B",
"&  c #291A15",
"*  c #311C16",
"=  c #24201C",
"-  c #29231B",
";  c #3D2315",
":  c #342416",
">  c #161C21",
",  c #1D1E22",
"<  c #181F29",
"1  c #211F23",
"2  c #1D2125",
"3  c #1C232B",
"4  c #19242B",
"5  c #1D2A33",
"6  c #1A2935",
"7  c #222224",
"8  c #2C2623",
"9  c #2B2924",
"0  c #25252A",
"q  c #29272C",
"w  c #27292C",
"e  c #2A2A2E",
"r  c #322B25",
"t  c #362825",
"y  c #2E312C",
"u  c #3A3329",
"i  c #232B34",
"p  c #2D2D32",
"a  c #252F39",
"s  c #2F3136",
"d  c #22323B",
"f  c #2E333A",
"g  c #273037",
"h  c #313235",
"j  c #31333A",
"k  c #34393E",
"l  c #3A3B3C",
"z  c #393738",
"x  c #482615",
"c  c #4C3A1A",
"v  c #4C2121",
"b  c #42362B",
"n  c #43392D",
"m  c #493626",
"M  c #463C38",
"N  c #502020",
"B  c #722A2B",
"V  c #59411D",
"C  c #4C4134",
"Z  c #4E463B",
"A  c #584B39",
"S  c #5C513D",
"D  c #5E4024",
"F  c #69482A",
"G  c #74542A",
"H  c #2A3845",
"J  c #343641",
"K  c #353B43",
"L  c #3A3C44",
"P  c #3C3D49",
"I  c #333B4C",
"U  c #413F4A",
"Y  c #3D424C",
"T  c #38434A",
"R  c #394955",
"E  c #3B535D",
"W  c #364A62",
"Q  c #3E5462",
"!  c #3B577E",
"~  c #444344",
"^  c #42434D",
"/  c #4D4D4D",
"(  c #47474A",
")  c #504A48",
"_  c #444652",
"`  c #464A55",
"'  c #484A57",
"]  c #464A59",
"[  c #494B59",
"{  c #4B535B",
"}  c #525154",
"|  c #53555C",
" . c #5B5D5D",
".. c #56585C",
"X. c #5D5141",
"o. c #6A5C48",
"O. c #635D5D",
"+. c #754948",
"@. c #77674D",
"#. c #7C6C54",
"$. c #776753",
"%. c #696156",
"&. c #4D5964",
"*. c #535460",
"=. c #535B65",
"-. c #5D5C65",
";. c #5D5E69",
":. c #5A5760",
">. c #41577C",
",. c #5A626A",
"<. c #596975",
"1. c #64646C",
"2. c #66676A",
"3. c #6B6A75",
"4. c #656772",
"5. c #68737B",
"6. c #73737C",
"7. c #777879",
"8. c #953133",
"9. c #826E53",
"0. c #897559",
"q. c #917D5C",
"w. c #8B7A62",
"e. c #8E7C71",
"r. c #B07271",
"t. c #DDA22E",
"y. c #C69131",
"u. c #9A8566",
"i. c #A48D6E",
"p. c #A38C66",
"a. c #A58E71",
"s. c #AC9473",
"d. c #AA9576",
"f. c #B59C74",
"g. c #B89D76",
"h. c #B49C7A",
"j. c #A8926B",
"k. c #BDA179",
"l. c #B7A17A",
"z. c #C2A67C",
"x. c #C6AB7E",
"c. c #3F5680",
"v. c #445A84",
"b. c #5E7186",
"n. c #526685",
"m. c #6C7B84",
"M. c #677784",
"N. c #727D84",
"B. c #767784",
"V. c #627D90",
"C. c #7B848C",
"Z. c #74838A",
"A. c #7D8B95",
"S. c #75869B",
"D. c #7C909B",
"F. c #7B94A1",
"G. c #858585",
"H. c #818D94",
"J. c #84949C",
"K. c #969593",
"L. c #B1A590",
"P. c #8A9AA5",
"I. c #8A9DAA",
"U. c #8699A4",
"Y. c #949DA5",
"T. c #959AA2",
"R. c #868EA1",
"E. c #98A4A9",
"W. c #95A4B2",
"Q. c #9CAAB5",
"!. c #9FB0B8",
"~. c #A6A8AB",
"^. c #A6ADB4",
"/. c #A3B1BB",
"(. c #ABB4BB",
"). c #B2B5B7",
"_. c #AE8F8D",
"`. c #D59997",
"'. c #CBAD82",
"]. c #CCB184",
"[. c #D3B485",
"{. c #DDBD8C",
"}. c #D4B589",
"|. c #C0BCB9",
" X c #DDC094",
".X c #E2C28D",
"XX c #EAC793",
"oX c #E8C794",
"OX c #F1CE98",
"+X c #F5D39C",
"@X c #FCD69C",
"#X c #FED89C",
"$X c #F6D69B",
"%X c #EFD09A",
"&X c #FED9A1",
"*X c #FAD5A1",
"=X c #ABB9C3",
"-X c #A5B8C3",
";X c #B6BDC5",
":X c #B9C5CC",
">X c #BBCCD6",
",X c #C7C8C8",
"<X c #C4CCD2",
"1X c #C8CFD5",
"2X c #CAD1D6",
"3X c #CDD5DB",
"4X c #C5D1D8",
"5X c #D9DADA",
"6X c #D4DEE4",
"7X c #D8DDE1",
"8X c #DBE1E5",
"9X c #DEE6EB",
"0X c #E6EAED",
"qX c #E7E9EA",
"wX c #EAEEF1",
"eX c #E7EEF6",
"rX c #ECF2F7",
"tX c #F1F4F6",
"yX c #F3F6F9",
"uX c #F5F9FA",
"iX c #FFFFFD",
"pX c white",
"aX c #FFFEFF",
"sX c #FDFEFE",
"dX c #FFFFFF",
"fX c #F1EEE9",
/* pixels */
"pXpXpXpXpXpXpXpXpXpXpXpXpXpXpXpXpXpXpXpXpXpXpXpXpXpXpXpXpXpXpXpXpXiXpXpXpXpXiXpXpXpXpXpXpXpXpXpXpXpXsXpXpXpXpXpXpXpXpXpXpXpXpXpX",
"pXpXpXpXpXpXpXpXpXpXpXpXpXpXpXpXsXiXpXpXpXpXpXpXpXpXpXpXpXiXpXpXpXpXpXiXpXpXpXpXpXpXpXpXpXpXpXpXpXpXpXpXpXpXpXpXpXpXpXpXpXpXpXpX",
"pXpXpXpXpXpXpXpXpXpXpXpXpXpXpXpXpXpXpXpXpXpXpXpXpXuX8X<X(.Y.Z.,.d 5 5 5 d T M.E.7XsXpXsXpXpXpXpXpXpXpXpXpXpXpXpXpXpXpXpXpXpXpXpX",
"pXpXpXpXpXpXpXpXpXpXpXpXpXpXpXpXpXpXpXpXwX8X:X^.5.&.f 4 @     # 2 q q 0 0 1 . + H P.wXsXpXpXpXpXpXpXpXsXpXpXpXiXpXpXpXpXpXpXpXpX",
"pXpXpXpXpXpXpXpXpXpXpXpXpXpXpXpXpX6XF.E > # . +     + . O . + # p U :.3.B.B.-.z . % Q >XpXpXpXpXpXpXpXpXpXpXpXpXpXpXpXpXpXpXpXpX",
"pXpXpXpXpXpXpXpXpXpXpXpXpXpX8XW.Y , . o e z / :.1.1.1.4.1.-.} U p 1 , q U *.3.6.:.q + 5 =XtXpXpXsXpXpXpXpXpXpXpXpXpXpXpXpXpXpXpX",
"pXpXpXpXpXpXpXpXpXpXiXiXyXQ.Y @ . q } -.3.3.4.;.;.;.-.-.-.;.1.4.3.1...( q p _ :.3.4.e   d F.eXpXsXpXpXpXpXpXpXpXpXpXpXpXpXpXpXpX",
"pXpXpXpXpXpXpXpXpXpXyX>X{ @ % e ( } ' U L J L J L P Y ] ` ` ] ] ' ' *.-.;._ L ^ [ ;.1.z   5 A.(.(.;X:X3X0XwXpXpXpXpXpXpXpXpXpXpX",
"pXpXpXpXpXpXpXpXpX8X5.4 X   % q # o . + . , q h J L _ _ [ ` ' ' ' ' ' ' ' [ [ _ [ ' :.4.z . # + # # , w l Y ,.N.:XtXpXpXpXpXpXiX",
"pXpXpXpXpXpXpXtXE.H     .   . . # 0 e j ^ ` ` ] [ [ _ ' ' ' [ ' ' ' ' _ [ [ [ [ [ ' [ [ 1.} } ' ' ~ U l j e = # > T =XpXpXpXpXpX",
"pXpXpXpXpXpX4X<.@   . . . o , e P _ ' ' ` ' ` ' ' ' [ ' ' ' ` [ ' ' ' ' ' ' ' [ [ [ [ [ [ *.{ *.=.;.4.3.6.6.1.} 7 + g P.pXiXpXpX",
"pXpXpXpXtXF.3 +   X . O 0 k ` ` [ ' ' [ ' ' ' ' ' [ [ ` [ ' ' ' ' ' ' ' ' ' ' ' ' [ _ [ ' ' [ ' ' _ ` ' [ { 4.6.6.^ o > :XpXpXiX",
"pXpXyX(.d < d 5 . . 0 J ' ' ' [ [ ' ' [ ' [ ` ` ' [ ' [ ' ' ` ' [ ' [ ' ' ' ' ' ' ' ` [ ' ' ` [ ' _ h 0 q p L ^ ;.3.z O H 2XpXpX",
"pX6Xb.W A./.&.< + q ^ ' ' ' ' ' ' [ [ _ ' ` ` _ P Y U P ` [ [ ' [ _ ' ' ' ' ' [ ' ' ' ' [ ' ' ' ' ' _ Y q + # , e ^ | 7 # Z.pXpX",
"9X-X8XuXyXA.# + z _ [ [ [ [ ' ' ` ' _ ^ K k f f h f h h Y ` ` ' [ ' ' ' ' ' ' [ [ ' ' ' _ [ ' ' [ [ [ ' ' ^ , . . . # = X Y wXpX",
"sXpXpXsXW.i + p _ [ ' ' ' ' ' [ _ Y j j p h p p 0 0 w f j _ ` ' ' ' ' ' ' ' [ _ ' ' ' ' [ [ ' ' ' ' [ _ ' ' T 0   .       w 3XpX",
"sXpXpX0Xd . w _ ' ` ' ' ' ' ^ L h p 0 0 # + o X o o + e f L [ ' ' ' ' [ ' ' ] ' ' ` ' ' ' ' ' ' ' ' ' ' ' ] ' _ 1 + > H 7 + ~.pX",
"pXpXuXU.X # L ' ' [ ' ' ' L p 0 # o X # 9 l O.7.K.M + 2 j L _ [ [ ' ' [ ' [ ' ' ' [ ' ' ' ' ' ' ' ' ' ' ' ' ' ' Y 0 O H =X<.m.pX",
"pXpX:Xd o e ` ] ` ` _ U q # . + . =  .K.,X2X5X8X5XG.o + h f ^ _ L _ ' _ ' ' ' ' [ _ ' ' ' ' ' [ ' ' [ ' U P ' ] [ P # . J.tXyXpX",
"pXsXM.O # T ` ` ` _ p ,   # # . O . o = u ~ ,.u.~.K.7 X e f Y Y J P ' ' ' ' [ ' [ [ ' ' ' ] [ [ ' ' ' ' I J J U ' _ p . H 1XpXpX",
"pXwXT . e _ ' ' h , . % 7.,X5X,XQ.u./ q O O O   + + + + 7 s j j f J [ [ ' ' ' ' ' ' [ ' ' ' ' _ ' ' ` ' L j j j J ' L # @ A.pXpX",
"pX3X5 . L _ L 7 . . . e z u r 7 > + + +   O . . . % # o o h f s f J _ ] ' ' [ ` ' ' ' ' ' [ ` [ [ ' ' ' P h j j q j U q   &.yXpX",
"pX=X> + U L = . . . o o $ 8 u n Z X.o.%.$.#.9.0.q.q.@.o # e j h w f U [ ' ' [ [ ` ' ` [ ' ` ' ' [ ' [ ' L j j j q 7 j s   T wXpX",
"pXW.> o p # X . u q.i.d.h.d.q.#.X.C u u A o.i.'.'.h.u.r + 0 j e 0 f P [ ' ' [ _ [ ' ' ' ' [ ' ' ' ' ] ' J f h j p , 0 q   a 5XpX",
"pXW.@ O   + > . C '.{.h.S t # . u o.u.l.}..X%X$XOXx.a.C . 7 p 7 , p L ` ` ' ' ' ' ' ' ' ' ` [ ] [ [ [ _ J j h f h 1 , 1 . i 3XpX",
"iXW.>   > <.E @ C {.'.: 1 C 9.z.*X@X@X#X#X#X#X#X#X[.s.X.. , q + # s L ' ' ' [ ` [ ' ' ' _ _ _ [ ' [ _ U f j j h h 0   + . g 7XpX",
"pX=X> o <.8Xb.@ u }.XX0.g..X'.q.o.S A S 9.x.#X#X#X{.l.$.  + #   # s k _ ' ' ' ' _ ' ' [ _ J P ` _ [ _ I f j h J h 0 .   . L 0XpX",
"pX<X4 Q tXpXP.@ - l.#X#X#.% > 0 J K ,.O.9 $ u.$X#X.Xl.0.O O O   # s k _ [ ' ' ` _ [ ' _ L j f L [ [ P f f h j j h 0 . . . T wXpX",
"pX4XV.9XpXpX!.4 o u.#Xl.. / n.>.v.c.n.;X5XO.= u.#XXXk.u.    .   # p J _ ` ' _ L J _ ] _ j s f J _ ^ j f j f h f h 7 X o . R wXpX",
"pXuXtXpXpXpX4Xd o @.$X0.+ 7.W i ^.Q.v.b.fX,X8 m $XOXh.a.o . % o # s J _ [ _ k f J U _ j f j j f L k j h j j j j h 2   + + &.tXpX",
"pXpXpXpXpXpXqX&.. S oX@.2 B.i . h { v.v.qXfX) . %XOXg.h.% n Z o , f J Y P J h h f L J f j j j f j j j h j j h j p # , H   <.pXpX",
"pXpXpXpXpXpX0X,.o A %X9.o C.I # U T.v.v.0XqXU $ +X+Xk.l.n w.C . 1 s f J f j j f j j s p j f j j j j j j h p j j 0 . f Q.3 5.pXpX",
"pXpXpXpXpXpX5XR   o.$X'.X O.R.W R ! v.W.fX|.8 M &X$X[.h.i.d.u o 7 h f j j j J f f j i p f j j j j J h h 0 2 s j # X 5.uXM.S.pXpX",
"pXpXpXpXsXsX<X5   q.#X$Xu 8 ).;XV.S.:XqX,X} : s.&X#XoXk.g.s.r . w j j j f j f j f y 7 h j h f j f j j p + + p 0 o 3 :XpX>X;XpXpX",
"pXpXpXpXpXpX,X4 . u.#X#Xx.A % z } } Z y $ n k.&X#X#X$X}.f.w.o + p j j j j j j h e , e j j j j j j p p #   O 7 o > C.sXpXpXpXpXpX",
"pXpXpXpXpXpX2Xa . @.#X#X#X.Xp.0.@.9.@.u.g..X#X&X#X#X#X{.h.@.X o f j f j j f f p # = f f f j j f j p # + . O . # M.0XsXpXpXpXpXpX",
"pXpXpXpXpXpXwXb.. u .X#X#X#X#X#X#X#X#X#X#X#X#X#X#X#X$X[.s.n X 0 h j j h f j 0 + # h j j j j f j 0 O O @     # <.yXpXpXpXpXpXpXpX",
"pXpXpXsXpXpXpX3X5 . C h.*X#X#X#X#X@X#X#X#X#X#X#X#X#X.Xz.#.= # e j J h j p , + # s j j f h s w # + 3 b.T X 2 P.uXpXpXpXpXpXpXpXpX",
"pXpXpXpXiXpXiXpX!.T @ = o.j.%X#X#X#X@X#X#X#X#X&X+X{.g.g.b X 1 h f j p 1 # o # p f j j s 7 , + @ =./.<XH 4 A.uXpXpXpXpXpXpXpXpXpX",
"pXpXpXpXpXpXpXpXpX8XZ.K @ . 8 S q.p.g.z.].[.'.z.a.a.a.0.o + e f w 1 # + . + q e e q # + o 0 ,.E.eXpX(.H (.uXpXpXpXpXpXpXpXpXpXpX",
"pXpXpXpXpXpXpXpXpXpXuXqX^.Z.H < O     o = - 8 9 r 8 8 % + + # # .         + + + @ o X . d (.sXpXpXpX>X/.pXpXpXpXpXpXpXpXpXpXpXpX",
"pXpXpXpXpXpXpXpXpXpXpXpXpXpXpX0X:XY.Z.&.o # ) b * $ . + + . . + O , + .   . + o + $ V c - E 8XpXpXpXpXpXpXpXpXpXpXpXpXpXpXpXpXpX",
"pXpXpXpXpXpXpXpXpXpXpXpXpXpXpXpXpXpXwX4.  M _.+.* $ o , j h + + { 5.T # . o #   . c y.t.G - <XpXpXpXpXpXpXpXpXpXpXpXpXpXpXpXpXpX",
"pXpXpXpXpXpXpXpXpXpXpXpXpXpXpXpXpXpX,X4 + O.M . @ . Y 5.6.s @ k I.J.6.'   , { 2   . $ & & R rXpXpXpXpXpXpXpXpXpXpXpXpXpXpXpXpXpX",
"pXpXpXpXpXpXpXpXpXpXpXpXpXpXpXpXpXpXQ.@   + + . X q m.A.2.2 7 5.I.U.Z.5., X ( z X = ) M @ P.pXpXpXpXpXpXpXpXpXpXpXpXpXpXpXpXpXpX",
"pXpXpXpXpXpXpXpXiXpXpXpXpXpXpXpXpXpXm.O % v ;   @ =.I.I.{ + z J.I.P.Z.5.l X + X   . u y H 1XpXpXpXpXpXpXpXpXpXiXpXpXpXpXpXpXpXpX",
"pXpXpXpXpXpXpXpXpXpXpXpXpXpXpXpXpXrXY + N 8.N + p C.I.I.f   { P.I.I.Z.Z.| , X   z o . . T 5XsXpXpXpXpXpXpXpXpXpXpXpXpXpXpXpXpXpX",
"pXpXpXpXpXpXpXpXpXpXpXpXpXpXpXpXpX8Xa O r.`.b + + { I.I.7 . N.=X/./.J.A.C.s X l ,.. % 7 5 2XsXpXpXpXpXpXpXpXpXpXpXpXpXpXpXpXpXpX",
"pXpXpXpXpXpXpXpXpXpXpXpXpXpXpXpXpX<X@ . r.r.t O   # ,.C.# # ^.eXrXwX;X^.E.~ . / 1 . + O M.wXpXpXpXpXpXpXpXpXpXpXpXpXpXpXpXpXpXpX",
"pXpXpXpXpXpXpXpXpXpXpXpXpXpXpXpXpX(.X . `.`.t . z , + w o X l -.6.6. ./ h ,   + .     > 4XsXpXpXpXpXpXpXpXpXpXpXpXpXpXpXpXpXpXpX",
"pXpXpXpXpXpXpXpXpXpXpXpXpXpXpXpXpXY.O $ B B $ . C.~. .k   . r u r r r u b $   . h 7 O 5 yXpXpXpXpXpXpXpXpXpXpXpXpXpXpXpXpXpXpXpX",
"pXpXpXpXpXpXpXpXpXpXpXpXpXpXpXpXpXY.+ o . + . . o / ~.~.  # q.s.s.a.s.s.h.S o 7 H.l O R pXpXpXsXpXpXpXpXpXpXpXpXpXpXpXpXpXpXpXpX",
"pXpXpXpXpXpXpXpXpXpXpXpXpXpXpXpXpX5.  > d @ w ..= X X @   $ z.OXoXXXXXXX+X#.o y I.`   T pXpXpXpXpXpXpXpXpXpXpXpXpXpXpXpXpXpXpXpX",
"pXpXpXpXpXpXpXpXpXpXpXpXpXpXpXpXwX` @ i T 2 ..I.J.m.( s # . o.oX#X@X#X$Xi.t @ Y 5.L X i pXpXpXpXpXpXpXpXpXpXpXpXpXpXpXpXpXpXpXpX",
"pXpXpXpXpXpXpXpXpXpXpXpXpXpXpXpX<Xj .   @ @ p Y R ` ` ( e + % M 9.0.@.A = + o @   O @ 4 sXsXpXpXpXpXpXpXpXpXpXpXpXpXpXpXpXpXpXpX",
"pXpXpXpXpXpXpXpXpXpXpXpXpXpXpXpXfX:XC.5...s O o = $ o X + o o o $ . $ $ - o X + K A.>X9XpXpXpXpXpXpXpXpXpXpXpXpXpXpXpXpXpXpXpXpX",
"pXpXpXpXpXpXpXpXpXpXpXpXpXpXpXpXpXpXpXpXpXY.@ o - - $ . . c F G F F B V b o X , /.sXsXpXpXpXpXpXpXpXsXsXpXpXpXpXpXpXpXpXpXpXpXpX",
"pXpXpXpXpXpXpXpXpXpXpXpXpXpXpXpXpXpXpXpXpX8Xj . $ & * $ . o o . . $ . $ o X f J.sXsXuXyXtXpXpXpXpXpXpXsXpXpXpXpXpXpXpXpXpXpXpXpX",
"pXpXpXpXpXpXpXpXpXpXpXpXpXpXpXpXpXpXpXpXpXpX*.@ & x x ; . . ; ; x x ; x $   7.sXpXpXpXyXyXpXpXpXpXpXpXsXsXpXpXpXpXpXpXpXsXpXpXpX",
"pXpXpXpXpXpXpXpXpXpXpXpXpXpXpXpXpXpXpXpXpXpX7.O o * ; * . $ x x x x x ;   @ ;XpXpXpXpXpXpXpXpXpXpXpXpXpXpXpXpXpXpXpXpXpXpXpXpXpX",
"pXpXpXpXpXpXpXpXpXpXpXpXpXpXpXpXpXpXpXpXpXpX3X{ . o . . . . o o $ $ o X X 2.sXpXpXpXpXsXpXpXpXpXpXpXpXpXpXpXpXpXpXpXpXpXpXpXpXpX",
"pXpXpXpXpXpXpXpXpXpXpXpXpXpXpXpXpXpXpXpXpXpXpXwX).~.~.~.Y.=.2 @ @ @ 2 K T.qXpXsXpXpXpXsXpXpXpXpXpXpXpXpXpXpXpXpXtXpXpXpXpXpXpXpX",
"pXpXpXpXpXpXpXpXpXpXpXpXpXpXpXpXpXpXpXpXiXpXuXpXpXpXpXpXpXpXpXpXpXpXpXpXpXpXpXpXpXsXsXsXsXpXsXsXsXuXpXpXpXpXsXsXpXrXpXpXpXpXpXsX",
"pXpXpXpXpXpXpXpXpXpXpXpXpXpXpXpXpXpXpXpXwXtXpXpXpXpXpXpXpXpXpXpXpXpXpXpXpXtX6XeXpXsXyXsXsXrXsXsXsXtXpXpXpXpXuXsXpXpXpXpXpXpXpXpX"
};
