/* XPM */
static char *result[] = {
/* columns rows colors chars-per-pixel */
"36 36 137 2 ",
"   c #171617",
".  c #1A1716",
"X  c #1C1816",
"o  c #191718",
"O  c #171A1D",
"+  c #1B1B1C",
"@  c #231916",
"#  c #2A1C16",
"$  c #221D1B",
"%  c #331F15",
"&  c #25211E",
"*  c #2B231C",
"=  c #352015",
"-  c #33261C",
";  c #34291C",
":  c #392A1E",
">  c #171E23",
",  c #1B1E22",
"<  c #201F22",
"1  c #172124",
"2  c #1B2226",
"3  c #1C242C",
"4  c #1B282F",
"5  c #172631",
"6  c #1B2730",
"7  c #1D2A34",
"8  c #1B2E39",
"9  c #232224",
"0  c #2A2625",
"q  c #2D2824",
"w  c #26262A",
"e  c #29272C",
"r  c #27282B",
"t  c #2A2B2D",
"y  c #35312E",
"u  c #3A322C",
"i  c #242C34",
"p  c #2D2D33",
"a  c #253037",
"s  c #2E3135",
"d  c #2F3239",
"f  c #323133",
"g  c #3B3633",
"h  c #30333A",
"j  c #39373B",
"k  c #35393D",
"l  c #3A3C3D",
"z  c #45341B",
"x  c #4D3C1E",
"c  c #402F23",
"v  c #42392F",
"b  c #553B24",
"n  c #443B34",
"m  c #453E3B",
"M  c #692A29",
"N  c #752A2A",
"B  c #5E4427",
"V  c #4A433F",
"C  c #7B522E",
"Z  c #724F30",
"A  c #7B5330",
"S  c #213642",
"D  c #363941",
"F  c #393C44",
"G  c #3C3E49",
"H  c #3B4043",
"J  c #3F414B",
"K  c #444244",
"L  c #4D4440",
"P  c #4E4A47",
"I  c #41434D",
"U  c #48464A",
"Y  c #42494F",
"T  c #4C4A4B",
"R  c #544A46",
"E  c #5A4C4C",
"W  c #444652",
"Q  c #464955",
"!  c #484A57",
"~  c #494B59",
"^  c #524F54",
"/  c #475054",
"(  c #4F5252",
")  c #4E515D",
"_  c #515154",
"`  c #53535B",
"'  c #59575D",
"]  c #535A5F",
"[  c #595C5F",
"{  c #625542",
"}  c #6C5E4A",
"|  c #7B5655",
" . c #76654E",
".. c #78664F",
"X. c #7C6A51",
"o. c #545461",
"O. c #565864",
"+. c #5D5C63",
"@. c #5E5E6A",
"#. c #605F65",
"$. c #625F69",
"%. c #5E626B",
"&. c #6A6360",
"*. c #6E6864",
"=. c #65646D",
"-. c #64696A",
";. c #686B6D",
":. c #616E75",
">. c #6B6B74",
",. c #647077",
"<. c #69757D",
"1. c #707274",
"2. c #737779",
"3. c #9D7630",
"4. c #AB7C23",
"5. c #BAA177",
"6. c #6C7A83",
"7. c #727F87",
"8. c #7A7D81",
"9. c #707F89",
"0. c #75858F",
"q. c #778791",
"w. c #788995",
"e. c #808286",
"r. c #84898B",
"t. c #93969A",
"y. c #989A9D",
"u. c #859AA3",
"i. c #889DAA",
"p. c #9AA4AF",
"a. c #A4ACB3",
"s. c #B6BCBF",
"d. c #CAAD83",
"f. c #CEB182",
"g. c #DABB89",
"h. c #BEC5C9",
"j. c None",
/* pixels */
"j.j.j.j.j.j.j.j.j.j.j.j.j.j.j.8 1 + O O , + , 2 8 j.j.j.j.j.j.j.j.j.j.j.",
"j.j.j.j.j.j.j.j.j.j.j.j.j.3 o j ` =.>.1.>.=.$.^ j O , 3 j.j.j.j.j.j.j.j.",
"j.j.j.j.j.j.j.j.6 , > > O j >.>.$.o.~ ~ ~ ~ ) O.@.>.#.U O 1 j.j.j.j.j.j.",
"j.j.j.j.j.j.4 O F O.=.=.$.@.) G W ~ ~ ~ ! ! ! ! ! ~ ~ O.=.U o 7 j.j.j.j.",
"j.j.j.j.j., g =.@.) J G G D D W ! ! ! ! ! ! ! ! ! ! ~ ~ ~ o.` w 3 j.j.j.",
"j.j.j.j.+ Q >.` ! ! ~ ! W W ! Q ! ! ! ! ! ! ! ! ! ~ ~ W G I Q ` w 3 j.j.",
"j.j.j.O ' =.~ ~ ! ! ! ! ! ! Q ~ ! ! ! ! ! ! ! ! ! ! ! ! W D + + 9 o 4 j.",
"j.j., Y @.~ Q ~ ! ! ! ! ! ! ~ ~ ! ! ! ! ! ! ! ! ! ! ! ! ! ! W f . O O 6 ",
"j.3 f @.! ! ! ! ! ! ! ! ~ Q ~ Q ! ! ! ! ! ! ! ! ! ! ! ! ! ! ! Q h , S j.",
"j.O ` ~ ! ! ! ! ! ! ! ! Q ~ Q ~ ! ! ! ! ! ! ! ! ! ! ! ! ! ! ! ~ Q p , j.",
"6 9 ` Q ! ! ! ! ! ! ! ! ~ Q Q ~ ! ! ! ! ! ! ! ! ! ! ! ! ! ! ! ! ~ Q , 6 ",
"> p W G ! ! ! ! ! ! ! ! Q Q ~ Q ! ! ! ! ! ! ! ! ! ! ! ! ! ! ! ! W ! d , ",
", r 2 l ! Q ! ! ! ! ~ Q ~ ~ ~ ~ ! ! ! ! ! ! ! ! ~ Q ~ Q ! Q Q ~ D e D + ",
"3 o X h W D W ! ! Q Q ~ ~ Q ~ ~ ! ! ! ! ! ! ! ! Q ~ Q Q I Q Q W h + 9 $ ",
"3 o o p D h D I W F D J Q Q Q J ! ! ! ! ! ! W G G Q I G D G G D f < . . ",
"j.8 o p h h h h D h h k F W G d G W ! ! Q I D d D G D d h h d d h , o O ",
"j.j., 9 h h h h D d d d d D D d d D J I G h d h h h h h h h h d d , 2 2 ",
"j.j.3 O d h h h d d d D d d d d S h h h h h h d h d h h h d h h p o j.j.",
"j.j.j., < h h h d d d d d d d d h h h h h d h h h h h h h d d h 9 , j.j.",
"j.j.j.j., 9 f h p w d d d k d k h h h h h h h h d h p p h d d w , j.j.j.",
"j.j.j.j.j.2 < t 9 O 9 f d d d d h h h h h h h h h e O r h p < , j.j.j.j.",
"j.j.j.j.j.j., + T T 9 , r s d d h h h h h h h p 9 X + 9 < , 2 j.j.j.j.j.",
"j.j.j.j.j.j.j.3 P &.*.g O ; 0 t p d d h d e w o + . o , 3 j.j.j.j.j.j.j.",
"j.j.j.j.j.j.j.j.j.t K T z 4.z , < < < < < @ @   . , j.j.j.j.j.j.j.j.j.j.",
"j.j.j.j.j.j.j.j.j.2 O x 3.x q R u . X E | N M X p t 2 j.j.j.j.j.j.j.j.j.",
"j.j.j.j.j.j.j.j.1 k / * ; & g L y f 1.  X + t s . 0.h , j.j.j.j.j.j.j.j.",
"j.j.j.j.j.j.j.2 +.a.:.9 k & y y + ;.8.o t + H %.w :.p._ 3 j.j.j.j.j.j.j.",
"j.j.j.j.j.j.j.O U t.T t l & t $ $ e.f . & ( j f s ( t.K + j.j.j.j.j.j.j.",
"j.j.j.j.j.j.$ } } u . f -.h.a.9 f t 9 ` y.2.t $ $ + n  .} & j.j.j.j.j.j.",
"j.j.j.j.j.j.v g.f. .9 s.r.q 9 / F 9 +.K + + g R n &  .f.g.n 4 j.j.j.j.j.",
"j.j.j.j.j.j.O { 5.X.. , k <.u.u.i.,.t $ 9 $ g m P L & { { O j.j.j.j.j.j.",
"j.j.j.j.j.j.j.3 + O o ] ,.6.0.q.w.w.q.Y 9 + 0 g g L g + r j.j.j.j.j.j.j.",
"j.j.j.j.j.j.j.j.j.j.j.o - : - - + + + + * - : & & q 0 2 j.j.j.j.j.j.j.j.",
"j.j.j.j.j.j.j.j.j.j.j.2 - Z C B $ i j.@ b C C c O j.j.j.j.j.j.j.j.j.j.j.",
"j.j.j.j.j.j.j.j.j.j.j.i . % % # o j.j., # % % X i j.j.j.j.j.j.j.j.j.j.j.",
"j.j.j.j.j.j.j.j.j.j.j.j.w X X O a j.j.j.O X X 2 j.j.j.j.j.j.j.j.j.j.j.j."
};
